<svg width="73" height="75" viewBox="0 0 73 75" fill="none" xmlns="http://www.w3.org/2000/svg">
<path d="M66.5088 48.7345L55.124 63.9776C52.5992 67.7549 51.1058 69.8806 50.644 70.3546C48.5718 72.9559 46.3658 74.2719 44.026 74.3025C41.2182 74.3392 39.7914 72.6027 39.7456 69.093C39.7089 66.2852 42.2154 61.104 47.2651 53.5494C52.3148 45.9947 54.8136 40.2286 54.7617 36.2509C54.728 33.6771 53.5138 30.2997 51.1189 26.1187C49.9215 24.0281 47.7744 20.8969 44.6776 16.725C42.7721 14.1757 41.5808 12.5531 41.1037 11.8573C39.6692 9.53588 38.9413 7.55622 38.9199 5.91836C38.874 2.40866 40.6059 0.63087 44.1156 0.585C46.4554 0.55442 48.8136 1.92772 51.1901 4.7049C51.6642 5.16674 53.4511 7.6006 56.551 12.0065L66.557 25.5659C67.7514 27.4224 68.9473 29.396 70.1447 31.4865C71.573 33.34 72.2995 35.2026 72.3239 37.0745C72.3514 39.1803 71.9064 40.9413 70.9888 42.3574C70.3052 43.7704 68.8119 45.8961 66.5088 48.7345ZM28.2531 49.2345L16.8683 64.4775C14.3434 68.2549 12.8501 70.3806 12.3882 70.8546C10.3161 73.4559 8.11008 74.7719 5.77028 74.8025C2.96252 74.8392 1.5357 73.1027 1.48983 69.593C1.45313 66.7852 3.95964 61.604 9.00934 54.0494C14.059 46.4947 16.5579 40.7286 16.5059 36.7509C16.4723 34.1771 15.258 30.7997 12.8632 26.6186C11.6658 24.5281 9.51867 21.3969 6.42188 17.225C4.99354 15.3715 3.68066 13.3995 2.48323 11.309C1.28581 9.21846 0.677928 7.47125 0.65958 6.06737C0.616768 2.79165 2.35021 1.13085 5.85991 1.08498C8.19971 1.0544 10.5579 2.4277 12.9344 5.20488C13.4084 5.66673 15.1954 8.10059 18.2952 12.5065L28.3013 26.0658C29.7327 28.1533 31.2811 30.2393 32.9465 32.3237C33.6668 33.7184 34.0407 35.4686 34.0682 37.5745C34.0957 39.6803 33.6507 41.4413 32.7331 42.8574C32.0495 44.2704 30.5562 46.3961 28.2531 49.2345Z" fill="#F3F3F3"/>
</svg>
