<svg width="28" height="33" viewBox="0 0 28 33" fill="none" xmlns="http://www.w3.org/2000/svg">
<path id="Vector" d="M14.8561 27.371C14.6789 27.8932 14.5017 27.8932 14.3263 27.371L11.7486 20.0791L9.73313 14.6123L13.1388 5.4668C13.316 4.94464 13.4932 4.94464 13.6686 5.4668L16.2463 12.7587L18.2618 18.2255L14.8561 27.371ZM27.6456 26.7615C27.2913 26.7615 26.7614 26.7263 26.2316 26.5533C25.4888 26.3435 24.4632 25.786 23.1905 22.6849C22.5005 20.9908 21.463 18.3665 20.3556 15.5374L22.6249 9.42084C23.2604 7.67804 23.9674 6.35499 25.5944 6.14512C25.8772 6.10986 26.373 6.0746 26.62 6.0746C26.7972 6.0746 26.9386 6.00576 26.9386 5.86473C26.9386 5.65653 26.7256 5.58601 26.2674 5.58601C24.6063 5.58601 22.6607 5.69011 22.2722 5.69011C21.8838 5.69011 21.2211 5.58601 20.3726 5.58601C20.054 5.58601 19.8428 5.65653 19.8428 5.86473C19.8428 6.00408 19.9484 6.0746 20.1971 6.0746H20.5515C21.1529 6.0746 21.8957 6.38857 21.8957 7.08536C21.8957 7.71162 21.7185 8.54776 21.4016 9.41916L19.7797 14.0498C17.582 8.42688 15.2905 2.50002 14.9583 1.67227C14.5341 0.592676 14.3927 0.41806 14.1797 0.41806C13.9668 0.41806 13.8271 0.627934 13.4012 1.77637L9.18454 13.1465L6.85902 7.08536C6.64606 6.52793 6.85902 6.21396 7.07198 6.14512C7.21338 6.10986 7.31901 6.04102 7.31901 5.90166C7.31901 5.69347 6.93057 5.69347 6.25762 5.65821C3.81795 5.58769 1.23687 5.58769 0.707027 5.58769C0.318587 5.58769 0 5.65821 0 5.8664C0 6.04102 0.141405 6.07628 0.354365 6.07628C0.707027 6.07628 1.23858 6.11154 1.76842 6.28448C2.51123 6.49435 3.53684 7.05178 4.80949 10.1529C5.49948 11.847 6.53702 14.4713 7.64442 17.3004L5.37511 23.417C4.73964 25.1598 4.03261 26.4828 2.4056 26.6927C2.12279 26.7279 1.62702 26.7615 1.37998 26.7615C1.2028 26.7615 1.06139 26.832 1.06139 26.9714C1.06139 27.1796 1.27435 27.2501 1.73264 27.2501C3.39373 27.2501 5.33934 27.146 5.72778 27.146C6.11621 27.146 6.77895 27.2501 7.62738 27.2501C7.94597 27.2501 8.15722 27.1796 8.15722 26.9714C8.15722 26.832 8.0516 26.7615 7.80286 26.7615H7.44849C6.84709 26.7615 6.10429 26.4475 6.10429 25.7508C6.10429 25.1245 6.28147 24.2884 6.59836 23.417L8.22026 18.7863C10.418 24.4092 12.7095 30.3361 13.0417 31.1638C13.4659 32.2434 13.6073 32.4181 13.8203 32.4181C14.0332 32.4181 14.1729 32.2082 14.5988 31.0598L18.8155 19.6896L21.141 25.7508C21.3539 26.3082 21.141 26.6222 20.928 26.691C20.7866 26.7263 20.681 26.7951 20.681 26.9345C20.681 27.1427 21.0694 27.1427 21.7424 27.1779C24.182 27.2484 26.7631 27.2484 27.293 27.2484C27.6814 27.2484 28 27.1779 28 26.9697C28 26.7951 27.8586 26.7598 27.6473 26.7598" fill="#0D1311"/>
</svg>
