<svg width="73" height="75" viewBox="0 0 73 75" fill="none" xmlns="http://www.w3.org/2000/svg">
<path d="M7.05482 26.2985L16.7031 12.4822C18.3104 10.121 19.9176 7.7598 21.5249 5.3986C24.059 2.32322 26.3789 0.771767 28.4847 0.744245C31.9944 0.698375 33.7722 2.43029 33.8181 5.94C33.8395 7.57786 33.279 9.45734 32.1366 11.5785C31.9057 11.8155 30.5263 13.7057 27.9983 17.249C25.7014 20.5553 23.8677 23.5045 22.4975 26.0967C19.9818 30.5759 18.7408 34.1024 18.7744 36.6762C18.8234 40.4199 21.4705 46.0018 26.716 53.4219C31.9614 60.8419 34.604 66.0729 34.6437 69.1146C34.6896 72.6243 33.3086 74.3975 30.5009 74.4342C28.3951 74.4617 26.2739 73.3193 24.1375 71.0071C21.7549 67.7619 20.088 65.5605 19.1368 64.4028L7.35756 49.4625C6.17237 48.3079 5.10264 47.0348 4.14837 45.6431C2.2429 43.0938 1.27334 40.5323 1.2397 37.9585C1.21218 35.8527 1.8866 33.7377 3.26295 31.6135C4.87023 29.2523 6.13419 27.4806 7.05482 26.2985ZM45.3106 25.7985L54.9588 11.9822C56.5661 9.62103 58.1734 7.25982 59.7807 4.89861C62.3147 1.82323 64.6346 0.271782 66.7404 0.24426C70.2501 0.19839 72.0264 1.81331 72.0692 5.08903C72.0937 6.96088 71.5347 8.95736 70.3923 11.0785C70.1614 11.3155 68.782 13.2057 66.2541 16.749C63.9571 20.0553 62.1235 23.0045 60.7532 25.5967C58.2376 30.0759 56.9965 33.6024 57.0302 36.1762C57.0791 39.9199 59.7263 45.5018 64.9717 52.9219C70.2171 60.342 72.8597 65.5729 72.8994 68.6146C72.9423 71.8903 71.5598 73.5465 68.752 73.5832C66.6462 73.6108 64.4066 72.3529 62.0331 69.8097C59.8906 67.0295 58.3438 65.0605 57.3926 63.9029L45.6133 48.9625C42.7597 45.4895 40.9742 43.1727 40.257 42.0119C39.7738 40.8481 39.5184 39.2133 39.4908 37.1075C39.4633 35.0017 40.1377 32.8867 41.5141 30.7625C43.1244 28.6353 44.3899 26.9806 45.3106 25.7985Z" fill="#F3F3F3"/>
</svg>
