<svg width="352" height="46" viewBox="0 0 352 46" fill="none" xmlns="http://www.w3.org/2000/svg">
<path d="M27.8726 33.2841C26.3331 33.2841 24.9174 33.2841 23.5017 33.2841C18.0999 33.2704 13.8114 29.5317 13.0555 24.1849C12.272 18.7007 16.3543 13.3676 21.866 12.6804C22.4708 12.5979 23.0893 12.5704 23.7078 12.5567C25.0549 12.5429 26.4019 12.5567 27.8451 12.5567C27.8451 8.66683 27.8451 4.81823 27.8451 0.804688C31.4188 1.51943 34.5252 2.9764 37.2604 5.1756C42.0712 9.03794 44.9439 14.0411 45.6724 20.1576C47.2943 33.9989 36.9718 43.4967 27.8863 44.9536C27.8726 41.105 27.8726 37.2427 27.8726 33.2841Z" fill="black"/>
<path d="M24.2297 4.61203C24.2297 5.78035 24.2022 6.94868 24.2435 8.117C24.271 8.69429 24.051 8.88672 23.5012 8.87298C21.412 8.85923 19.3915 9.23035 17.5222 10.1513C12.7252 12.5154 9.93492 16.3365 9.38512 21.6971C8.67038 28.707 13.4811 35.2771 20.5736 36.7066C21.5769 36.9128 22.6216 36.9403 23.6387 37.009C24.0785 37.0365 24.2435 37.1464 24.2297 37.6138C24.216 39.9917 24.216 42.3833 24.2297 44.7612C24.2297 45.2422 24.0648 45.3934 23.5975 45.3934C16.8487 45.3934 11.1582 42.8918 6.60863 37.9299C3.3923 34.4249 1.50924 30.2327 0.986925 25.5182C-0.332595 13.725 7.47457 3.05884 19.1578 0.804665C20.5873 0.529765 22.0718 0.54351 23.515 0.40606C24.0373 0.364825 24.2435 0.54351 24.2297 1.10705C24.2022 2.27538 24.2297 3.4437 24.2297 4.61203Z" fill="black"/>
<path d="M134.987 22.3012C135.605 22.6174 136.155 22.851 136.664 23.1397C138.822 24.418 139.784 26.3972 139.646 28.8439C139.413 33.1185 136.76 35.8538 132.485 36.2936C131.688 36.3761 130.891 36.4173 130.094 36.4173C125.736 36.4311 121.393 36.4173 117.036 36.4173C116.761 36.4173 116.486 36.4173 116.17 36.4173C116.17 27.4144 116.17 18.4389 116.17 9.40842C116.404 9.39468 116.637 9.36719 116.885 9.36719C121.118 9.36719 125.352 9.36719 129.599 9.36719C131.413 9.36719 133.145 9.68332 134.753 10.563C138.78 12.7897 139.825 18.5214 135.715 21.7102C135.482 21.8889 135.262 22.0676 134.987 22.3012ZM126.3 32.2526C126.3 32.2389 126.3 32.2251 126.3 32.2114C128.059 32.2114 129.832 32.2801 131.592 32.1839C133.118 32.1014 134.382 31.4554 134.959 29.9022C135.825 27.5381 134.368 25.0227 131.825 24.899C128.211 24.7204 124.596 24.8028 120.981 24.7616C120.5 24.7616 120.5 25.0502 120.5 25.3939C120.5 27.4556 120.513 29.5174 120.486 31.5791C120.486 32.0877 120.637 32.2526 121.159 32.2389C122.864 32.2389 124.582 32.2526 126.3 32.2526ZM120.5 20.8168C120.637 20.8443 120.747 20.8855 120.857 20.8718C123.812 20.8443 126.767 20.8855 129.709 20.748C130.616 20.7068 131.592 20.3082 132.375 19.8271C133.544 19.1124 133.97 17.9028 133.805 16.5558C133.626 15.1538 132.801 14.2054 131.454 13.7931C130.781 13.5869 130.066 13.5182 129.365 13.5044C126.671 13.4769 123.963 13.4907 121.269 13.4907C121.022 13.4907 120.775 13.5182 120.513 13.5319C120.5 16.006 120.5 18.3977 120.5 20.8168Z" fill="black"/>
<path d="M207.107 36.4042C205.582 36.4042 204.166 36.4042 202.695 36.4042C202.695 27.415 202.695 18.4395 202.695 9.39532C204.029 9.39532 205.334 9.36783 206.64 9.42281C206.874 9.43656 207.135 9.71146 207.3 9.91763C210.489 14.1373 213.664 18.3708 216.839 22.5905C217.004 22.8104 217.169 23.0166 217.389 23.2915C217.595 23.0304 217.746 22.8379 217.897 22.6455C221.072 18.4258 224.261 14.1923 227.423 9.95887C227.725 9.56026 228.027 9.35409 228.55 9.36783C229.69 9.40907 230.831 9.38158 232.041 9.38158C232.041 18.3983 232.041 27.3875 232.041 36.4042C230.625 36.4042 229.237 36.4042 227.752 36.4042C227.752 29.7654 227.752 23.1266 227.752 16.4877C227.697 16.4603 227.629 16.4465 227.574 16.419C227.409 16.6114 227.244 16.8039 227.079 17.0101C224.399 20.5838 221.732 24.1575 219.066 27.7449C218.818 28.0748 218.557 28.1572 218.172 28.2122C216.605 28.4596 215.657 27.8411 214.75 26.5353C212.496 23.3053 210.076 20.1989 207.712 17.0513C207.547 16.8314 207.382 16.6252 207.107 16.2816C207.107 23.0716 207.107 29.6829 207.107 36.4042Z" fill="black"/>
<path d="M238.197 36.4042C238.197 27.3875 238.197 18.4395 238.197 9.43652C245.207 9.43652 252.203 9.43652 259.241 9.43652C259.241 10.756 259.241 12.0756 259.241 13.505C258.952 13.505 258.664 13.505 258.375 13.505C253.385 13.505 248.382 13.5188 243.393 13.4913C242.719 13.4913 242.541 13.6975 242.554 14.3435C242.596 16.1303 242.582 17.9172 242.554 19.704C242.541 20.2676 242.706 20.4463 243.283 20.4463C246.334 20.4188 249.372 20.3775 252.423 20.46C253.715 20.4875 255.049 20.6387 256.272 20.9961C259.969 22.0819 261.935 25.0646 261.756 29.0919C261.605 32.4869 259.09 35.3596 255.557 36.1293C254.801 36.2942 254.018 36.4042 253.248 36.4042C248.41 36.4317 243.585 36.418 238.747 36.418C238.596 36.4317 238.445 36.418 238.197 36.4042ZM248.314 32.2532C248.314 32.2395 248.314 32.2257 248.314 32.212C250.045 32.212 251.791 32.267 253.523 32.1982C255.351 32.1295 256.753 31.0024 257.138 29.463C257.729 27.0301 256.203 24.8584 253.605 24.7622C250.114 24.6247 246.609 24.6935 243.118 24.6522C242.623 24.6522 242.568 24.8996 242.568 25.2983C242.582 27.4012 242.582 29.5042 242.568 31.6072C242.568 32.1295 242.747 32.267 243.242 32.267C244.919 32.2395 246.609 32.2532 248.314 32.2532Z" fill="black"/>
<path d="M183.355 37.1187C176.552 37.1187 171.122 33.064 169.528 26.6863C167.947 20.3773 170.325 13.656 176.194 10.4947C182.696 6.9897 191.163 8.83153 195.176 14.6457C199.836 21.3807 198.131 32.5279 188.977 36.1016C187.177 36.8026 185.293 37.1187 183.355 37.1187ZM183.383 32.899C188.977 32.899 193.224 28.5831 193.211 22.9064C193.197 17.1885 189.005 12.955 183.369 12.955C177.775 12.955 173.528 17.2572 173.528 22.9339C173.528 28.6106 177.775 32.899 183.383 32.899Z" fill="black"/>
<path d="M96.7886 37.1191C89.9711 37.1191 84.583 33.0781 82.9336 26.7141C81.3117 20.4877 83.7721 14.0275 88.9952 10.8524C95.2217 7.05879 104.719 8.2821 108.967 15.1821C113.145 21.9584 111.331 32.6107 102.369 36.1157C100.568 36.803 98.6991 37.1191 96.7886 37.1191ZM96.7748 32.8994C102.383 32.8994 106.616 28.5972 106.616 22.9205C106.616 17.2026 102.424 12.9554 96.7886 12.9554C91.1944 12.9417 86.9334 17.2438 86.9334 22.9205C86.9334 28.611 91.1669 32.8994 96.7748 32.8994Z" fill="black"/>
<path d="M294.98 9.42285C296.437 9.42285 297.826 9.42285 299.296 9.42285C299.296 9.72524 299.296 10.0001 299.296 10.2613C299.296 13.4639 299.31 16.6665 299.283 19.8828C299.283 20.4601 299.406 20.68 300.039 20.68C304.822 20.6525 309.605 20.6525 314.402 20.68C314.993 20.68 315.131 20.4738 315.131 19.924C315.117 16.7214 315.117 13.5189 315.117 10.3025C315.117 10.0276 315.117 9.76648 315.117 9.4366C316.601 9.4366 318.003 9.4366 319.46 9.4366C319.46 18.4121 319.46 27.3738 319.46 36.3905C318.058 36.3905 316.643 36.3905 315.158 36.3905C315.144 36.1294 315.117 35.8682 315.117 35.6071C315.117 32.267 315.103 28.927 315.131 25.5732C315.131 24.9959 314.993 24.776 314.375 24.776C309.605 24.8035 304.849 24.8035 300.08 24.776C299.42 24.776 299.283 24.9959 299.296 25.6007C299.324 28.927 299.31 32.2395 299.31 35.5658C299.31 35.8407 299.31 36.1019 299.31 36.4043C297.839 36.4043 296.451 36.4043 294.994 36.4043C294.98 27.4288 294.98 18.4533 294.98 9.42285Z" fill="black"/>
<path d="M350.812 9.42326C346.853 13.8354 342.977 18.1513 339.087 22.5085C343.087 27.1406 347.046 31.7314 351.114 36.4459C349.437 36.4459 347.912 36.3909 346.4 36.4597C345.561 36.5009 345.025 36.226 344.489 35.58C341.548 32.0338 338.579 28.5288 335.582 25.0238C335.376 24.7902 334.978 24.5977 334.661 24.5977C333.136 24.5565 331.596 24.584 329.974 24.584C329.974 28.5563 329.974 32.4599 329.974 36.4047C328.476 36.4047 327.074 36.4047 325.617 36.4047C325.617 27.4292 325.617 18.4537 325.617 9.45075C327.047 9.45075 328.449 9.45075 329.947 9.45075C329.947 13.1482 329.947 16.8181 329.947 20.5705C331.706 20.5705 333.369 20.5842 335.033 20.543C335.239 20.543 335.472 20.2543 335.651 20.0619C338.592 16.7081 341.534 13.3406 344.462 9.97306C344.833 9.54697 345.19 9.38203 345.754 9.39577C347.169 9.43701 348.599 9.40952 350.015 9.40952C350.248 9.38203 350.468 9.39577 350.812 9.42326Z" fill="black"/>
<path d="M263.078 36.4305C263.312 35.8945 263.504 35.4409 263.71 34.9873C267.298 26.7266 270.899 18.4658 274.473 10.2051C274.761 9.54533 275.105 9.33915 275.792 9.36664C276.906 9.42162 278.033 9.39413 279.16 9.36664C279.586 9.3529 279.806 9.4766 279.984 9.88895C283.737 18.5483 287.517 27.2076 291.283 35.867C291.352 36.0319 291.393 36.1969 291.475 36.4443C289.922 36.4443 288.451 36.458 286.967 36.4168C286.788 36.4168 286.555 36.1007 286.458 35.8945C285.634 34.0527 284.836 32.2108 284.053 30.3553C283.847 29.8742 283.613 29.668 283.05 29.6817C279.201 29.7092 275.352 29.7092 271.504 29.6817C270.94 29.6817 270.707 29.8742 270.5 30.3553C269.717 32.2108 268.892 34.0389 268.109 35.8945C267.93 36.3206 267.696 36.4718 267.243 36.458C265.896 36.4168 264.535 36.4305 263.078 36.4305ZM277.29 14.6997C275.669 18.4521 274.129 22.012 272.576 25.6132C275.778 25.6132 278.844 25.6132 282.005 25.6132C280.438 21.9845 278.912 18.4246 277.29 14.6997Z" fill="black"/>
<path d="M157.515 22.5074C161.487 27.1257 165.418 31.7166 169.432 36.3899C169.129 36.4173 168.937 36.4448 168.745 36.4448C167.274 36.4448 165.817 36.4311 164.346 36.4586C163.865 36.4723 163.549 36.3211 163.247 35.95C160.223 32.3351 157.158 28.7339 154.134 25.119C153.804 24.7341 153.488 24.5554 152.979 24.5692C151.701 24.6104 150.409 24.6104 149.13 24.5692C148.567 24.5554 148.388 24.7341 148.388 25.2976C148.416 28.7064 148.402 32.1289 148.402 35.5377C148.402 35.8126 148.402 36.0737 148.402 36.3899C146.931 36.3899 145.529 36.3899 144.072 36.3899C144.072 27.4144 144.072 18.4526 144.072 9.43591C145.488 9.43591 146.904 9.43591 148.402 9.43591C148.402 9.72456 148.402 9.98571 148.402 10.2469C148.402 13.4357 148.416 16.6108 148.388 19.7996C148.388 20.4044 148.539 20.5969 149.158 20.5694C150.464 20.5281 151.769 20.5831 153.075 20.5281C153.405 20.5144 153.831 20.3357 154.051 20.0883C157.048 16.707 160.003 13.312 162.958 9.90324C163.288 9.51838 163.618 9.36719 164.126 9.36719C165.789 9.39468 167.453 9.38093 169.281 9.38093C165.295 13.8343 161.418 18.1502 157.515 22.5074Z" fill="black"/>
<path d="M79.4988 12.432C78.5641 13.5728 77.6844 14.645 76.901 15.6071C75.4715 14.8924 74.1657 14.0814 72.75 13.5728C69.4512 12.4045 66.1798 12.6107 63.2109 14.5762C60.187 16.5693 59.0462 19.5932 59.1424 23.0981C59.1836 24.3627 59.3898 25.6684 59.8159 26.8505C61.1629 30.5479 64.0219 32.376 67.843 32.7471C71.3755 33.0907 74.4681 31.9911 77.1621 29.7095C77.2171 29.6682 77.2721 29.6407 77.3958 29.572C78.2342 30.6854 79.0727 31.785 79.9661 32.967C79.6087 33.2694 79.2926 33.5856 78.9215 33.8467C75.389 36.3483 71.4442 37.2967 67.1557 36.8844C64.4342 36.6232 61.9326 35.771 59.7472 34.0941C56.6821 31.7437 55.1289 28.5549 54.6753 24.775C54.3317 21.9435 54.6478 19.1945 55.8574 16.5967C57.8229 12.3495 61.2316 9.91667 65.7675 9.05074C70.1247 8.22604 74.2344 8.98201 78.0143 11.3462C78.5229 11.6623 78.9764 12.0471 79.4988 12.432Z" fill="black"/>
</svg>
