<svg width="245" height="58" viewBox="0 0 245 58" fill="none" xmlns="http://www.w3.org/2000/svg">
<g id="Group">
<g id="Group_2">
<g id="Group_3">
<g id="Group_4">
<g id="Group_5">
<g id="Group_6">
<path id="Vector" d="M58.3552 49.8336C58.3552 47.7159 56.7081 46.1865 54.3552 46.1865H47.4141V57.5982H50.0023V53.4806H52.5905L55.767 57.5982H58.7081L55.414 53.363C57.1787 53.01 58.3552 51.5983 58.3552 49.8336ZM50.0023 48.3042H54.1199C55.2964 48.3042 55.767 48.8924 55.767 49.7159C55.767 50.5394 55.1787 51.1277 54.1199 51.1277H50.0023V48.3042Z" fill="black"/>
<path id="Vector_2" d="M63.6483 46.0693H61.1777V57.5987H63.6483V46.0693Z" fill="black"/>
<path id="Vector_3" d="M72.0008 55.2458L68.1184 46.0693H65.2949L70.2361 57.5987H73.5302L78.4713 46.0693H75.7654L72.0008 55.2458Z" fill="black"/>
<path id="Vector_4" d="M196.001 54.5399L190.589 46.0693H187.178V57.5987H189.648V49.2458L195.06 57.5987H198.354V46.0693H196.001V54.5399Z" fill="black"/>
<path id="Vector_5" d="M206.706 53.4805H210.353C209.765 54.7747 208.471 55.5982 206.941 55.5982C205.059 55.5982 203.53 53.9511 203.53 51.9511C203.53 49.8335 205.059 48.3041 207.059 48.3041C209.53 48.3041 210.235 50.1864 210.235 50.1864H212.941C212.941 50.1864 211.883 45.9512 207.059 45.9512C203.647 45.9512 200.941 48.657 200.941 51.9511C200.941 55.3629 203.647 57.9511 206.471 57.9511C209.412 57.9511 210.235 55.4805 210.235 55.4805H210.706V57.5982H212.941V53.4805V51.8335V51.4806H206.824V53.4805H206.706Z" fill="black"/>
<path id="Vector_6" d="M41.2961 46.0693H34.4727V57.5987H36.9432V53.5987H41.1785C43.5314 53.5987 45.1785 51.9517 45.1785 49.834C45.2961 47.7164 43.6491 46.0693 41.2961 46.0693ZM40.9432 51.3634H36.9432V48.3046H40.9432C42.1197 48.3046 42.7079 48.8928 42.7079 49.834C42.7079 50.7752 42.1197 51.3634 40.9432 51.3634Z" fill="black"/>
<path id="Vector_7" d="M106.236 46.0693V57.5987H116.354V55.2458H108.825V53.0105H115.413V50.6575H108.825V48.4223H116.354V46.0693H106.236Z" fill="black"/>
<path id="Vector_8" d="M88.9428 48.0693H88.4723C87.6487 46.6575 86.1193 45.834 84.4723 45.834C81.6488 45.834 79.0605 48.4222 79.0605 51.8339C79.0605 55.2457 81.6488 57.8339 84.4723 57.8339C86.237 57.8339 87.6487 57.0104 88.4723 55.5986H88.9428V57.5986H91.4134V46.0693H88.9428V48.0693ZM85.2958 55.5986C83.2958 55.5986 81.6488 53.9516 81.6488 51.9516C81.6488 49.834 83.2958 48.3046 85.2958 48.3046C87.2958 48.3046 88.9428 49.9516 88.9428 51.9516C88.9428 53.9516 87.2958 55.5986 85.2958 55.5986Z" fill="black"/>
<path id="Vector_9" d="M179.767 46.0693H176.355L170.944 51.3634V46.0693H168.355V57.5987H170.944V52.3046L176.473 57.5987H180.002L173.65 51.7164L179.767 46.0693Z" fill="black"/>
<path id="Vector_10" d="M162.354 54.5399L156.943 46.0693H153.648V57.5987H156.119V49.2458L161.531 57.5987H164.825V46.0693H162.354V54.5399Z" fill="black"/>
<path id="Vector_11" d="M133.884 51.7164C134.707 51.2458 135.296 50.3046 135.296 49.2458C135.296 47.3634 133.884 46.0693 131.884 46.0693H124.59V57.5987H132.355C134.354 57.5987 135.766 56.3046 135.766 54.4222C135.766 53.1281 135.06 52.1869 133.884 51.7164ZM131.178 48.187C132.237 48.187 132.707 48.6576 132.707 49.4811C132.707 50.3046 132.237 50.7752 131.178 50.7752H127.06V48.187H131.178ZM131.649 55.481H127.06V52.8928H131.649C132.707 52.8928 133.178 53.3634 133.178 54.1869C133.178 55.0105 132.707 55.481 131.649 55.481Z" fill="black"/>
<path id="Vector_12" d="M93.4121 48.4223H97.6474V57.5987H100.118V48.4223H104.353V46.0693H93.4121V48.4223Z" fill="black"/>
<path id="Vector_13" d="M183.646 46.0693H181.176V57.5987H183.646V46.0693Z" fill="black"/>
<path id="Vector_14" d="M147.65 48.0693H147.179C146.356 46.6575 144.826 45.834 143.179 45.834C140.356 45.834 137.768 48.4222 137.768 51.8339C137.768 55.2457 140.356 57.8339 143.179 57.8339C144.944 57.8339 146.356 57.0104 147.179 55.5986H147.65V57.5986H150.12V46.0693H147.65V48.0693ZM143.885 55.5986C141.885 55.5986 140.238 53.9516 140.238 51.9516C140.238 49.834 141.885 48.3046 143.885 48.3046C145.885 48.3046 147.532 49.9516 147.532 51.9516C147.65 53.9516 146.003 55.5986 143.885 55.5986Z" fill="black"/>
</g>
<g id="Group_7">
<path id="Vector_15" d="M13.5293 30.1866C9.17642 30.1866 5.64702 26.7749 5.64702 22.1867C5.64702 17.7161 9.05877 14.1867 13.5293 14.1867C17.8822 14.1867 21.5293 17.5985 21.5293 22.1867C21.4116 26.7749 17.8822 30.1866 13.5293 30.1866ZM21.4116 14.0691H20.4705C18.7058 11.0103 15.5293 9.12793 11.7646 9.12793C5.64703 9.12793 0 14.775 0 22.1867C0 29.5984 5.52938 35.2454 11.7646 35.2454C15.5293 35.2454 18.7058 33.4807 20.4705 30.3043H21.4116V34.5395H26.8234V9.71616H21.4116V14.0691ZM174.117 30.1866C169.646 30.1866 166.352 26.7749 166.352 22.3043C166.352 17.8338 169.646 14.3044 174.117 14.3044C178.47 14.3044 181.881 17.7161 181.881 22.3043C181.881 26.6572 178.587 30.1866 174.117 30.1866ZM174.117 9.12793C167.528 9.12793 162.234 13.5985 161.058 19.5985H156.47V9.71616H151.058V34.5395H156.47V24.6572H161.058C162.234 30.6572 167.528 35.2454 174.117 35.2454C181.411 35.2454 187.411 29.4807 187.411 22.1867C187.411 15.0102 181.411 9.12793 174.117 9.12793ZM189.293 14.8926H198.352V34.5395H203.763V14.8926H212.822V9.71616H189.175V14.8926H189.293ZM129.411 9.71616L118.823 34.5395H124.587L132.823 14.6573L141.058 34.5395H147.058L136.47 9.71616H129.411ZM74.8231 14.3044C80.1172 14.3044 81.6466 18.422 81.6466 18.422H87.4112C87.4112 18.422 85.176 9.24558 74.8231 9.24558C67.4114 9.24558 61.6467 15.0102 61.6467 22.3043C61.6467 29.5984 67.4114 35.3631 74.8231 35.3631C85.0583 35.3631 87.4112 26.1866 87.4112 26.1866H81.6466C81.6466 26.1866 80.1172 30.3043 74.8231 30.3043C70.4702 30.3043 67.1761 26.8925 67.1761 22.3043C67.1761 17.7161 70.4702 14.3044 74.8231 14.3044ZM48.8232 29.716H39.9998V23.4808H48.8232C51.2938 23.4808 52.4703 24.7749 52.4703 26.5396C52.4703 28.3043 51.2938 29.716 48.8232 29.716ZM49.4115 18.6573H39.9998V14.6573H55.9997V9.71616H34.588V34.5395H49.5291C54.5879 34.5395 58.1173 31.1278 58.1173 26.5396C57.9997 22.069 54.4703 18.6573 49.4115 18.6573ZM103.882 30.1866C99.2935 30.1866 95.8818 26.7749 95.8818 22.3043C95.8818 17.8338 99.2935 14.3044 103.882 14.3044C108.352 14.3044 111.882 17.7161 111.882 22.3043C111.882 26.6572 108.47 30.1866 103.882 30.1866ZM103.882 9.12793C96.3524 9.12793 90.4701 14.8926 90.4701 22.1867C90.4701 29.3631 96.3524 35.2454 103.882 35.2454C111.411 35.2454 117.411 29.4807 117.411 22.1867C117.411 15.0102 111.293 9.12793 103.882 9.12793Z" fill="black"/>
</g>
</g>
</g>
<g id="Group_8">
<path id="Vector_16" d="M229.645 17.7163C234.453 17.7163 238.351 13.8186 238.351 9.01052C238.351 4.20242 234.453 0.304688 229.645 0.304688C224.837 0.304688 220.939 4.20242 220.939 9.01052C220.939 13.8186 224.837 17.7163 229.645 17.7163Z" fill="black"/>
<path id="Vector_17" d="M235.763 0.304688C235.293 0.304688 234.822 0.304687 234.352 0.422334C238.469 1.12821 241.646 4.6576 241.646 9.01052C241.646 13.3634 238.469 16.8928 234.352 17.5987C234.822 17.7163 235.293 17.7163 235.763 17.7163C240.587 17.7163 244.469 13.834 244.469 9.01052C244.469 4.18702 240.704 0.304688 235.763 0.304688Z" fill="black"/>
</g>
</g>
</g>
</g>
</svg>
