<svg width="172" height="64" viewBox="0 0 172 64" fill="none" xmlns="http://www.w3.org/2000/svg"><path d="M69.8 32.3V31.2C72.8 29.7 74.7 26.6 74.6 23.2C74.6 17.7 69.8 13 60.2 13H40V52.3H60.7C71 52.3 75.9 47.5 75.9 41.1C75.9 37.2 73.4 33.7 69.8 32.3ZM47.5 18.8H59.5C65 18.8 67 20.7 67 24C67 27.3 65 29.2 59.5 29.2H47.5V18.8ZM59.7 46.6H47.5V34.8H59.7C65.9 34.8 68.3 37 68.3 40.7C68.3 44.4 66 46.6 59.7 46.6Z" fill="#1B3281"></path><path d="M118.3 13H110.5L101.2 28.1H99.3L90.2 13H82.3L93.4 31.6L80.5 52.3H88.6L99.2 35.3H101.1L111.5 52.3H119.9L107 31.4L118.3 13Z" fill="#1B3281"></path><path d="M153.5 32V30.9C155.9 29.8 158.2 27.4 158.2 23.2C158.2 17.5 152.5 13 142.2 13C132.5 13 126.1 17.1 125.2 23.9H132.9C133.7 20.5 136.8 18.8 142.1 18.8C146.9 18.8 150.5 20.6 150.5 24C150.5 26.8 148.7 29.2 143.1 29.2H136.2V34.9H143.1C149.5 34.9 152 37.2 152 40.6C152 44.3 148.1 46.6 142.3 46.6C136.2 46.6 132.3 44.6 131.1 40.7H123.2C124.4 47.9 130.6 52.4 142.2 52.4C153.5 52.4 159.7 47.1 159.7 40.9C159.9 35.7 157.1 33.1 153.5 32Z" fill="#1B3281"></path><path d="M169.2 16.3001C169.3 16.1001 169.3 16.0001 169.4 15.8001C169.5 15.5001 169.5 15.2001 169.5 14.9001C169.6 14.4001 169.4 13.9001 169.2 13.5001C169 13.2001 168.7 13.1001 168.3 13.1001H167C166.7 13.1001 166.4 13.2001 166.2 13.5001C166 13.8001 165.9 14.1001 165.8 14.4001C165.8 14.7001 165.7 14.9001 165.7 15.2001H166.1C166.1 14.8001 166.2 14.3001 166.3 14.0001C166.4 13.8001 166.7 13.7001 166.9 13.7001H168.3C168.5 13.7001 168.6 13.7001 168.7 13.8001C168.8 13.9001 168.9 14.1001 169 14.3001C169 14.6001 169.1 14.8001 169.1 15.1001C169.1 15.4001 169.1 15.6001 169 15.9001C169 16.1001 168.9 16.2001 168.8 16.4001C168.7 16.5001 168.5 16.5001 168.4 16.5001H167.3V17.0001H168.4C168.6 17.0001 168.7 17.0001 168.9 17.1001C169 17.1001 169.1 17.3001 169.1 17.5001C169.2 17.8001 169.2 18.1001 169.2 18.3001C169.2 18.6001 169.2 18.9001 169.1 19.1001C169 19.3001 169 19.7001 168.8 19.8001C168.7 19.9001 168.5 20.0001 168.4 20.0001H167C166.5 20.0001 166.2 19.3001 166.2 18.4001H165.8C165.8 18.9001 165.9 19.5001 166.1 19.9001C166.3 20.2001 166.6 20.4001 167 20.4001H168.3C168.5 20.4001 168.7 20.3001 168.9 20.2001C169.1 20.0001 169.3 19.8001 169.3 19.5001C169.4 19.1001 169.5 18.6001 169.5 18.2001C169.5 17.9001 169.5 17.6001 169.4 17.3001C169.4 17.1001 169.3 17.0001 169.2 16.8001C169.2 16.7001 169.1 16.7001 169 16.6001L168.9 16.5001L169 16.4001C169.2 16.4001 169.2 16.3001 169.2 16.3001Z" fill="#1B3281"></path><path d="M171.4 13.1001L170.3 15.3001L170.6 15.8001L171.5 13.9001V20.4001H171.9V13.1001H171.4Z" fill="#1B3281"></path><path d="M14.4 22.8999L0 32.7999V52.2999L14.4 62.0999L28.6 52.2999V32.6999L14.4 22.8999Z" fill="#585EAA"></path><path d="M4.8 29.4999V23.1999C4.8 21.9999 3.8 20.8999 2.5 20.8999H0V32.7999L4.8 29.4999Z" fill="#585EAA"></path><path d="M28.6001 13.1001H26.2C24.9 13.1001 23.8 14.2001 23.8 15.5001V29.4001L28.6001 32.7001V13.1001Z" fill="#585EAA"></path><path d="M10.8 8.09977C10.8 6.99977 10.1 5.99977 9 5.69977C7.7 5.39977 6.4 6.09977 6.1 7.39977C6 7.59977 6 7.89977 6 8.09977V28.4998C6 28.4998 6 28.5998 6.1 28.5998L10.7 25.3998L10.8 8.09977Z" fill="#585EAA"></path><path d="M16.7 24.5V3.59995C16.7 2.39995 16 1.39995 14.8 0.999954C13.6 0.699954 12.3 1.39995 12 2.59995C12 2.89995 12 3.09995 12 3.29995V24.5L14.4 22.9L16.7 24.5Z" fill="#585EAA"></path><path d="M22.8 8.69987C22.8 7.59987 22.1 6.59987 21 6.29987C19.7 5.99987 18.4 6.69987 18.1 7.99987C18 8.19987 18 8.39987 18 8.59987V25.3999L22.8 28.6999V8.69987Z" fill="#585EAA"></path><path d="M23.8999 29.3999V55.5999L28.5999 52.2999V32.6999L23.8999 29.3999Z" fill="#1B3281"></path><path d="M6 28.5999V56.3999L6.5 56.6999L10.8 59.6999V25.3999L6 28.5999Z" fill="#1B3281"></path><path d="M14.4 22.8999L12 24.4999V60.4999L14.4 62.0999L16.7 60.4999V24.4999L14.4 22.8999Z" fill="#1B3281"></path><path d="M18 25.3999V59.5999L22.8 56.2999V28.6999L18 25.3999Z" fill="#1B3281"></path><path d="M0 32.8V34.3V52.3L4.8 55.5V34.1V29.5L0 32.8Z" fill="#1B3281"></path><path d="M40.4199 61.9998V56.9888H41.2099V60.3288L42.8709 56.9888H43.7019V61.9998H42.9119V58.7318L41.2539 61.9998H40.4199Z" fill="#585EAA"></path><path d="M44.269 61.9998V56.9888H45.096V58.9608H46.7231V56.9888H47.554V61.9998H46.7231V59.8088H45.096V61.9998H44.269Z" fill="#585EAA"></path><path d="M48.1321 61.9998V56.9888H48.9591V58.9608H50.5861V56.9888H51.4171V61.9998H50.5861V59.8088H48.9591V61.9998H48.1321Z" fill="#585EAA"></path><path d="M51.8269 59.5248C51.8269 58.9278 51.9149 58.4368 52.0899 58.0518C52.2679 57.6648 52.4989 57.3768 52.7839 57.1878C53.0689 56.9978 53.4139 56.9038 53.8199 56.9038C54.4079 56.9038 54.8859 57.1278 55.2549 57.5768C55.6269 58.0258 55.8119 58.6648 55.8119 59.4948C55.8119 60.3328 55.6159 60.9878 55.2239 61.4598C54.8799 61.8768 54.4129 62.0848 53.8229 62.0848C53.2279 62.0848 52.7589 61.8788 52.4149 61.4668C52.0229 60.9948 51.8269 60.3478 51.8269 59.5248ZM52.6809 59.4908C52.6809 60.0678 52.7909 60.5008 53.0099 60.7898C53.2279 61.0768 53.4999 61.2208 53.8229 61.2208C54.1489 61.2208 54.4189 61.0778 54.6329 60.7928C54.8469 60.5058 54.9539 60.0668 54.9539 59.4738C54.9539 58.8928 54.8499 58.4638 54.6399 58.1858C54.4329 57.9078 54.1599 57.7688 53.8229 57.7688C53.4859 57.7688 53.2109 57.9088 52.9989 58.1888C52.7869 58.4688 52.6809 58.9028 52.6809 59.4908Z" fill="#585EAA"></path><path d="M56.1821 56.9888H57.8261C58.2751 56.9888 58.5901 57.0298 58.7731 57.1118C58.9551 57.1938 59.1091 57.3388 59.2341 57.5458C59.3591 57.7538 59.4221 57.9878 59.4221 58.2498C59.4221 58.4918 59.3681 58.7108 59.2611 58.9068C59.1541 59.0998 59.0151 59.2438 58.8441 59.3368C59.0881 59.4238 59.2781 59.5718 59.4151 59.7818C59.5541 59.9908 59.6241 60.2468 59.6241 60.5468C59.6241 60.9118 59.5361 61.2208 59.3601 61.4738C59.1851 61.7238 58.9781 61.8788 58.7381 61.9378C58.5721 61.9788 58.1861 61.9998 57.5801 61.9998H56.1821V56.9888ZM57.0091 57.8228V58.9818H57.5561C57.8841 58.9818 58.0871 58.9758 58.1641 58.9648C58.3051 58.9418 58.4161 58.8828 58.4961 58.7868C58.5751 58.6888 58.6151 58.5568 58.6151 58.3908C58.6151 58.2428 58.5821 58.1228 58.5161 58.0318C58.4521 57.9378 58.3741 57.8798 58.2801 57.8568C58.1891 57.8348 57.9251 57.8228 57.4871 57.8228H57.0091ZM57.0091 59.8158V61.1558H57.7781C58.1151 61.1558 58.3321 61.1388 58.4271 61.1038C58.5231 61.0678 58.6031 60.9988 58.6671 60.8958C58.7331 60.7908 58.7661 60.6588 58.7661 60.4998C58.7661 60.3348 58.7301 60.2008 58.6601 60.0958C58.5911 59.9888 58.4991 59.9158 58.3831 59.8768C58.2691 59.8358 58.0341 59.8158 57.6791 59.8158H57.0091Z" fill="#585EAA"></path><path d="M63.7489 61.9998H62.847L62.488 60.8618H60.848L60.509 61.9998H59.627L61.227 56.9888H62.1049L63.7489 61.9998ZM62.222 60.0178L61.658 58.1578L61.1 60.0178H62.222Z" fill="#585EAA"></path><path d="M67.1921 61.1518H67.5301V63.0898H66.8501V61.9998H63.9241V56.9888H64.7511V61.1518H66.3681V56.9888H67.1921V61.1518Z" fill="#585EAA"></path><path d="M67.8281 61.9998V56.9888H68.6171V60.3288L70.2781 56.9888H71.1091V61.9998H70.3191V58.7318L68.6621 61.9998H67.8281Z" fill="#585EAA"></path><path d="M71.509 59.5248C71.509 58.9278 71.597 58.4368 71.772 58.0518C71.95 57.6648 72.181 57.3768 72.466 57.1878C72.751 56.9978 73.096 56.9038 73.502 56.9038C74.09 56.9038 74.568 57.1278 74.937 57.5768C75.309 58.0258 75.494 58.6648 75.494 59.4948C75.494 60.3328 75.298 60.9878 74.906 61.4598C74.562 61.8768 74.095 62.0848 73.505 62.0848C72.91 62.0848 72.441 61.8788 72.097 61.4668C71.705 60.9948 71.509 60.3478 71.509 59.5248ZM72.364 59.4908C72.364 60.0678 72.473 60.5008 72.692 60.7898C72.91 61.0768 73.182 61.2208 73.505 61.2208C73.831 61.2208 74.101 61.0778 74.315 60.7928C74.529 60.5058 74.636 60.0668 74.636 59.4738C74.636 58.8928 74.532 58.4638 74.322 58.1858C74.115 57.9078 73.842 57.7688 73.505 57.7688C73.168 57.7688 72.893 57.9088 72.681 58.1888C72.469 58.4688 72.364 58.9028 72.364 59.4908Z" fill="#585EAA"></path><path d="M75.8669 61.9998V56.9888H76.6939V58.9608H78.3209V56.9888H79.1519V61.9998H78.3209V59.8088H76.6939V61.9998H75.8669Z" fill="#585EAA"></path><path d="M79.73 61.9998V56.9888H80.557V58.9608H82.184V56.9888H83.014V61.9998H82.184V59.8088H80.557V61.9998H79.73Z" fill="#585EAA"></path><path d="M83.606 61.9998V56.9888H84.433V58.9818H85.6089C86.0459 58.9818 86.3929 59.1228 86.6479 59.4058C86.9059 59.6858 87.034 60.0558 87.034 60.5168C87.034 60.8928 86.931 61.2338 86.723 61.5418C86.516 61.8468 86.147 61.9998 85.616 61.9998H83.606ZM84.433 59.8298V61.1518H85.308C85.536 61.1518 85.7 61.1378 85.8 61.1078C85.903 61.0758 85.992 61.0028 86.067 60.8888C86.144 60.7748 86.183 60.6438 86.183 60.4958C86.183 60.0518 85.9029 59.8298 85.3419 59.8298H84.433ZM87.694 61.9998V56.9888H88.521V61.9998H87.694Z" fill="#585EAA"></path><path d="M89.041 62.0002V56.9892H89.83V60.3292L91.492 56.9892H92.322V62.0002H91.533V58.7322L89.875 62.0002H89.041ZM91.191 55.6602H91.574C91.553 55.9792 91.462 56.2252 91.3 56.3982C91.141 56.5692 90.941 56.6542 90.702 56.6542C90.463 56.6542 90.262 56.5692 90.1 56.3982C89.941 56.2252 89.85 55.9792 89.827 55.6602H90.21C90.239 55.9882 90.404 56.1522 90.702 56.1522C91.001 56.1522 91.163 55.9882 91.191 55.6602Z" fill="#585EAA"></path><path d="M93.792 61.9998L95.197 59.3848L93.922 56.9888H94.893L95.717 58.5988L96.523 56.9888H97.484L96.209 59.4228L97.614 61.9998H96.612L95.7 60.2668L94.787 61.9998H93.792Z" fill="#585EAA"></path><path d="M97.7581 61.9998V56.9888H98.5471V60.3288L100.208 56.9888H101.039V61.9998H100.249V58.7318L98.5921 61.9998H97.7581Z" fill="#585EAA"></path><path d="M101.593 61.9998V56.9888H102.833L103.579 60.4068L104.317 56.9888H105.561V61.9998H104.792V58.0558L103.975 61.9998H103.175L102.365 58.0558V61.9998H101.593Z" fill="#585EAA"></path><path d="M106.112 61.9998V56.9888H106.901V60.3288L108.562 56.9888H109.393V61.9998H108.603V58.7318L106.946 61.9998H106.112Z" fill="#585EAA"></path><path d="M109.889 58.7798V56.9888H110.716V58.3188C110.716 58.5968 110.727 58.8038 110.75 58.9408C110.775 59.0748 110.842 59.1888 110.952 59.2828C111.063 59.3758 111.237 59.4228 111.471 59.4228C111.822 59.4228 112.102 59.3318 112.312 59.1488V56.9888H113.139V61.9998H112.312V59.9828C111.986 60.1608 111.659 60.2498 111.331 60.2498C110.875 60.2498 110.521 60.1218 110.268 59.8668C110.015 59.6098 109.889 59.2468 109.889 58.7798Z" fill="#585EAA"></path><path d="M113.714 61.9998V56.9888H116.763V57.8368H114.541V58.9478H116.605V59.7918H114.541V61.1558H116.838V61.9998H113.714Z" fill="#585EAA"></path><path d="M119.89 60.1578L120.693 60.4688C120.568 61.0288 120.36 61.4388 120.068 61.6988C119.776 61.9568 119.417 62.0848 118.991 62.0848C118.456 62.0848 118.022 61.8788 117.689 61.4668C117.306 60.9908 117.115 60.3478 117.115 59.5388C117.115 58.6848 117.307 58.0158 117.692 57.5328C118.027 57.1128 118.477 56.9038 119.043 56.9038C119.503 56.9038 119.888 57.0608 120.198 57.3748C120.419 57.5988 120.581 57.9298 120.683 58.3698L119.863 58.6088C119.81 58.3378 119.706 58.1308 119.548 57.9868C119.393 57.8408 119.21 57.7688 118.998 57.7688C118.695 57.7688 118.448 57.9008 118.256 58.1648C118.065 58.4288 117.969 58.8658 117.969 59.4738C117.969 60.1048 118.063 60.5538 118.25 60.8208C118.436 61.0868 118.679 61.2208 118.978 61.2208C119.196 61.2208 119.386 61.1358 119.545 60.9678C119.705 60.7968 119.82 60.5268 119.89 60.1578Z" fill="#585EAA"></path><path d="M121.138 62.0001V56.9891H121.965V59.1221C122.15 59.0991 122.277 59.0381 122.348 58.9381C122.419 58.8351 122.512 58.5901 122.628 58.2031C122.745 57.8151 122.865 57.5341 122.991 57.3581C123.116 57.1811 123.249 57.0721 123.391 57.0341C123.532 56.9951 123.774 56.9681 124.119 56.9521V57.7041H124.002C123.768 57.7041 123.608 57.7581 123.524 57.8681C123.442 57.9751 123.356 58.1831 123.267 58.4931C123.181 58.8031 123.106 59.0091 123.042 59.1121C122.98 59.2141 122.88 59.3161 122.741 59.4161C122.923 59.4911 123.072 59.6131 123.185 59.7821C123.302 59.9501 123.441 60.2331 123.602 60.6291L124.163 62.0001H123.189L122.693 60.7051C122.568 60.3741 122.46 60.1441 122.369 60.0141C122.28 59.8821 122.145 59.8141 121.965 59.8091V62.0001H121.138Z" fill="#585EAA"></path><path d="M124.351 61.9998V56.9888H125.141V60.3288L126.802 56.9888H127.632V61.9998H126.843V58.7318L125.185 61.9998H124.351Z" fill="#585EAA"></path><path d="M128.2 62.0002V56.9892H128.99V60.3292L130.651 56.9892H131.481V62.0002H130.692V58.7322L129.034 62.0002H128.2ZM130.35 55.6602H130.733C130.712 55.9792 130.621 56.2252 130.459 56.3982C130.3 56.5692 130.101 56.6542 129.861 56.6542C129.622 56.6542 129.421 56.5692 129.26 56.3982C129.1 56.2252 129.009 55.9792 128.986 55.6602H129.369C129.399 55.9882 129.563 56.1522 129.861 56.1522C130.16 56.1522 130.323 55.9882 130.35 55.6602Z" fill="#585EAA"></path><path d="M132.952 61.9998L134.356 59.3848L133.082 56.9888H134.052L134.876 58.5988L135.683 56.9888H136.643L135.368 59.4228L136.773 61.9998H135.771L134.859 60.2668L133.946 61.9998H132.952Z" fill="#585EAA"></path><path d="M136.749 59.5248C136.749 58.9278 136.837 58.4368 137.012 58.0518C137.19 57.6648 137.421 57.3768 137.706 57.1878C137.991 56.9978 138.336 56.9038 138.742 56.9038C139.33 56.9038 139.808 57.1278 140.178 57.5768C140.549 58.0258 140.735 58.6648 140.735 59.4948C140.735 60.3328 140.539 60.9878 140.147 61.4598C139.803 61.8768 139.336 62.0848 138.745 62.0848C138.151 62.0848 137.681 61.8788 137.337 61.4668C136.945 60.9948 136.749 60.3478 136.749 59.5248ZM137.604 59.4908C137.604 60.0678 137.713 60.5008 137.932 60.7898C138.151 61.0768 138.422 61.2208 138.745 61.2208C139.071 61.2208 139.341 61.0778 139.555 60.7928C139.77 60.5058 139.877 60.0668 139.877 59.4738C139.877 58.8928 139.772 58.4638 139.562 58.1858C139.355 57.9078 139.083 57.7688 138.745 57.7688C138.408 57.7688 138.134 57.9088 137.922 58.1888C137.71 58.4688 137.604 58.9028 137.604 59.4908Z" fill="#585EAA"></path><path d="M143.452 61.9998V57.8328H142.222V59.9768C142.222 60.5348 142.205 60.9478 142.17 61.2168C142.139 61.4838 142.058 61.6868 141.928 61.8258C141.8 61.9648 141.592 62.0338 141.302 62.0338C141.218 62.0338 141.044 62.0228 140.779 61.9998V61.2098H140.961C141.138 61.2098 141.254 61.1818 141.309 61.1248C141.366 61.0658 141.395 60.9208 141.395 60.6908V56.9888H144.279V61.9998H143.452Z" fill="#585EAA"></path><path d="M148.026 61.1518H148.381V63.0898H147.701V61.9998H145.107V63.0898H144.427V61.1518H144.768C144.903 60.8008 145.007 60.3778 145.079 59.8808C145.152 59.3838 145.189 58.6438 145.189 57.6588V56.9888H148.026V61.1518ZM147.199 57.8328H145.975C145.975 59.3118 145.862 60.4188 145.637 61.1518H147.199V57.8328Z" fill="#585EAA"></path><path d="M148.669 61.9998V56.9888H149.458V60.3288L151.119 56.9888H151.95V61.9998H151.16V58.7318L149.503 61.9998H148.669Z" fill="#585EAA"></path><path d="M152.517 61.9998V56.9888H153.345V58.9608H154.972V56.9888H155.802V61.9998H154.972V59.8088H153.345V61.9998H152.517Z" fill="#585EAA"></path><path d="M156.394 61.9998V57.0298H159.285V57.8778H157.221V61.9998H156.394Z" fill="#585EAA"></path></svg>