<svg width="108" height="108" viewBox="0 0 108 108" fill="none" xmlns="http://www.w3.org/2000/svg">
<g id="Group 42">
<path id="Vector" d="M14.6835 67.1123L8.78488 76.8051L2.78428 67.1123H0.078125L7.60829 79.3977V90.6271H9.96147V79.3977L17.3897 67.1123H14.6835Z" fill="black"/>
<path id="Vector_2" d="M36.2693 67.1123L47.188 90.635H44.678L40.9913 82.9044H30.8884L27.2331 90.635H24.6289L35.7124 67.1123H36.2693ZM35.9791 72.0927L31.9316 80.6113H39.9559L35.9791 72.0927Z" fill="black"/>
<path id="Vector_3" d="M59.0879 67.1114H64.4688C66.9161 67.1114 68.7751 67.2769 69.9125 67.7024C72.3284 68.6165 73.756 70.7127 73.756 73.3684C73.756 74.5504 73.5913 75.236 73.0736 76.2841C71.8656 78.7427 69.5203 79.6884 65.6376 79.6884L74.0855 90.6262H71.1832L62.7745 79.6884H61.4411V90.6262H59.0957V67.1035L59.0879 67.1114ZM61.4332 69.4046V77.3952C62.7353 77.3952 64.0766 77.4267 65.316 77.4267C67.3397 77.4267 68.9006 77.2297 69.9125 76.4102C70.7596 75.7246 71.3166 74.574 71.3166 73.3605C71.3166 71.0673 69.7478 69.3967 66.2337 69.3967H61.4411L61.4332 69.4046Z" fill="black"/>
<path id="Vector_4" d="M87.5449 67.1114H93.3181C95.8909 67.1114 98.2754 67.2454 100.589 68.191C104.794 69.8931 107.304 73.9594 107.304 79.1289C107.304 85.8429 103.264 90.6262 95.7261 90.6262H87.5449V67.1035V67.1114ZM93.3494 88.3331C97.7812 88.3331 100.715 87.939 102.801 85.3858C104.135 83.7467 104.856 81.619 104.856 79.1604C104.856 76.7017 104.205 74.6371 102.903 72.9349C100.683 70.0192 97.3577 69.3967 92.2748 69.3967H89.8981V88.3331H93.3573H93.3494Z" fill="black"/>
<path id="Vector_5" d="M66.2416 0.704102L43.2824 21.9494L41.6038 49.9403L40.1057 21.9494L17.1465 0.704102L41.698 18.5924L66.2416 0.704102Z" fill="black"/>
<path id="Vector_6" d="M41.7852 49.9403L65.0267 28.9865L66.4229 0.704102L67.6466 28.9865L90.8881 49.9403L66.3366 31.7525L41.7852 49.9403Z" fill="black"/>
<path id="Vector_7" d="M4.54223 107.159C3.77352 107.159 3.26367 106.962 2.77734 106.474L3.15385 106.096C3.57742 106.521 3.97746 106.663 4.55791 106.663C5.31093 106.663 5.77372 106.308 5.77372 105.71C5.77372 105.442 5.69528 105.205 5.53056 105.063C5.36584 104.921 5.23249 104.874 4.86383 104.819L4.26769 104.724C3.85981 104.661 3.54605 104.527 3.31857 104.33C3.05973 104.094 2.92638 103.779 2.92638 103.361C2.92638 102.486 3.55389 101.903 4.5736 101.903C5.23249 101.903 5.66391 102.069 6.10317 102.471L5.75019 102.825C5.43643 102.534 5.0913 102.384 4.55007 102.384C3.86765 102.384 3.46761 102.77 3.46761 103.345C3.46761 103.598 3.5382 103.802 3.69508 103.936C3.85196 104.07 4.11865 104.173 4.38535 104.22L4.95011 104.307C5.43643 104.378 5.67175 104.48 5.89138 104.669C6.17376 104.906 6.3228 105.26 6.3228 105.694C6.3228 106.6 5.61684 107.159 4.55007 107.159" fill="black"/>
<path id="Vector_8" d="M12.9814 107.12L12.5735 105.953H10.3302L9.92228 107.12H9.33398L11.2244 101.958H11.6872L13.5697 107.12H12.9814ZM11.4597 102.746L10.4949 105.473H12.4166L11.4675 102.746H11.4597Z" fill="black"/>
<path id="Vector_9" d="M17.467 101.958H16.918V107.12H17.467V101.958Z" fill="black"/>
<path id="Vector_10" d="M24.7553 107.12L22.0334 102.975V107.12H21.4844V101.958H22.0021L24.7318 106.079V101.958H25.2808V107.12H24.7553Z" fill="black"/>
<path id="Vector_11" d="M30.7952 102.447V107.12H30.254V102.447H28.7637V101.958H32.2856V102.447H30.7952Z" fill="black"/>
<path id="Vector_12" d="M42.0038 104.992H40.6389V107.12H40.0898V101.958H42.0038C42.945 101.958 43.5882 102.549 43.5882 103.471C43.5882 104.393 42.9372 104.992 42.0038 104.992ZM41.9567 102.447H40.6389V104.503H41.9567C42.5999 104.503 43.047 104.157 43.047 103.471C43.047 102.785 42.5999 102.447 41.9567 102.447Z" fill="black"/>
<path id="Vector_13" d="M47.166 107.12V101.958H50.3585V102.447H47.7151V104.267H49.9663V104.763H47.7151V106.623H50.3585V107.12H47.166Z" fill="black"/>
<path id="Vector_14" d="M55.5277 102.447V107.12H54.9786V102.447H53.4961V101.958H57.018V102.447H55.5277Z" fill="black"/>
<path id="Vector_15" d="M60.5 107.12V101.958H63.6925V102.447H61.0491V104.267H63.3003V104.763H61.0491V106.623H63.6925V107.12H60.5Z" fill="black"/>
<path id="Vector_16" d="M70.3048 107.12L69.136 104.826H67.9045V107.12H67.3555V101.958H69.3243C70.2185 101.958 70.846 102.502 70.846 103.392C70.846 104.149 70.3911 104.637 69.7243 104.779L70.9401 107.12H70.2969H70.3048ZM69.2694 102.447H67.8967V104.338H69.2694C69.8655 104.338 70.2969 104.023 70.2969 103.392C70.2969 102.762 69.8734 102.439 69.2694 102.439" fill="black"/>
<path id="Vector_17" d="M75.9368 107.159C75.1602 107.159 74.6582 106.962 74.1719 106.474L74.5484 106.096C74.972 106.521 75.372 106.663 75.9524 106.663C76.7055 106.663 77.1683 106.308 77.1683 105.71C77.1683 105.442 77.0898 105.205 76.9251 105.063C76.7604 104.921 76.627 104.874 76.2505 104.819L75.6544 104.724C75.2465 104.661 74.9327 104.527 74.7053 104.33C74.4464 104.094 74.3131 103.779 74.3131 103.361C74.3131 102.486 74.9406 101.903 75.9603 101.903C76.6192 101.903 77.0506 102.069 77.4899 102.471L77.1369 102.825C76.8231 102.534 76.478 102.384 75.9368 102.384C75.2543 102.384 74.8543 102.77 74.8543 103.345C74.8543 103.598 74.9249 103.802 75.0818 103.936C75.2387 104.07 75.5053 104.173 75.772 104.22L76.3368 104.307C76.8231 104.378 77.0584 104.48 77.2781 104.669C77.5605 104.906 77.7095 105.26 77.7095 105.694C77.7095 106.6 77.0035 107.159 75.9368 107.159Z" fill="black"/>
<path id="Vector_18" d="M83.3889 107.12H81.3887V101.958H83.3183C84.2125 101.958 84.8322 102.47 84.8322 103.337C84.8322 103.881 84.5105 104.306 84.0791 104.464C84.5655 104.645 84.9184 105.071 84.9184 105.693C84.9184 106.631 84.2988 107.12 83.3889 107.12ZM83.2791 102.447H81.9377V104.235H83.2791C83.8517 104.235 84.2909 103.952 84.2909 103.337C84.2909 102.722 83.8517 102.447 83.2791 102.447ZM83.334 104.732H81.9299V106.623H83.334C83.9693 106.623 84.3615 106.253 84.3615 105.678C84.3615 105.102 83.9615 104.732 83.334 104.732Z" fill="black"/>
<path id="Vector_19" d="M90.4486 107.158C89.4053 107.158 88.6602 106.441 88.6602 105.409V101.949H89.2092V105.361C89.2092 106.142 89.6956 106.662 90.4486 106.662C91.2016 106.662 91.6958 106.149 91.6958 105.361V101.949H92.2448V105.409C92.2448 106.441 91.484 107.158 90.4486 107.158Z" fill="black"/>
<path id="Vector_20" d="M99.1388 107.12L97.97 104.826H96.7385V107.12H96.1895V101.958H98.1583C99.0525 101.958 99.68 102.502 99.68 103.392C99.68 104.149 99.2251 104.637 98.5583 104.779L99.7741 107.12H99.1309H99.1388ZM98.1034 102.447H96.7307V104.338H98.1034C98.6995 104.338 99.1309 104.023 99.1309 103.392C99.1309 102.762 98.7074 102.439 98.1034 102.439" fill="black"/>
<path id="Vector_21" d="M106.419 106.568C106.058 106.962 105.572 107.167 105.046 107.167C104.521 107.167 104.081 106.978 103.736 106.631C103.25 106.143 103.25 105.638 103.25 104.543C103.25 103.448 103.25 102.943 103.736 102.455C104.081 102.108 104.536 101.919 105.046 101.919C106.027 101.919 106.693 102.557 106.843 103.463H106.293C106.152 102.809 105.689 102.415 105.046 102.415C104.709 102.415 104.38 102.549 104.16 102.786C103.838 103.117 103.799 103.463 103.799 104.551C103.799 105.638 103.838 105.985 104.16 106.316C104.387 106.553 104.709 106.679 105.046 106.679C105.423 106.679 105.784 106.529 106.019 106.237C106.231 105.985 106.309 105.701 106.309 105.3V104.906H105.046V104.417H106.858V105.237C106.858 105.828 106.733 106.229 106.419 106.568Z" fill="black"/>
</g>
</svg>
