<svg width="182" height="48" viewBox="0 0 182 48" fill="none" xmlns="http://www.w3.org/2000/svg">
<g id="Group">
<path id="Vector" d="M61.2754 10.996L64.3047 4.43833L67.2063 10.996H61.2754ZM71.2222 20.084H75.0814L66.3707 0.381836H62.2852L53.1914 20.084H57.0796L59.6505 14.5244H68.7674L71.2222 20.084Z" fill="black"/>
<g id="Group_2">
<path id="Vector_2" d="M168.274 16.5389H171.89C175.366 16.5389 178.198 13.7069 178.198 10.2308C178.198 6.75459 175.366 3.92259 171.89 3.92259L168.274 3.90518V16.5389ZM171.89 20.0673H164.746V0.359375L171.902 0.394195C177.316 0.394195 181.726 4.80469 181.726 10.2308C181.726 15.6568 177.316 20.0673 171.89 20.0673Z" fill="black"/>
<path id="Vector_3" d="M115.302 3.93465H121.738C123.682 3.93465 125.266 5.51894 125.266 7.46304C125.266 9.40715 123.682 10.9914 121.738 10.9914H115.302V3.93465ZM124.929 20.0852H129.375L124.639 13.8931C127.088 12.7847 128.789 10.3183 128.789 7.46304C128.789 3.57484 125.626 0.40625 121.732 0.40625H111.768V20.0852H115.296V14.5256H120.676L124.929 20.0852Z" fill="black"/>
</g>
<path id="Vector_4" d="M19.305 0.381836H15.0628L9.7238 8.42519L4.37898 0.381836H0.142578L7.9596 12.1451V20.0782H11.488V12.1451L19.305 0.381836Z" fill="black"/>
<path id="Vector_5" d="M37.3766 0.394531H35.1133V20.0735H37.3766V0.394531Z" fill="black"/>
<path id="Vector_6" d="M93.1578 0.394531H90.8945V20.0735H93.1578V0.394531Z" fill="black"/>
<path id="Vector_7" d="M148.933 0.394531H146.67V20.0735H148.933V0.394531Z" fill="black"/>
<g id="Group_3">
<path id="Vector_8" d="M13.2048 40.5293C13.7677 40.9994 14.0521 41.6493 14.0521 42.4734C14.0521 43.2975 13.7677 43.9474 13.2048 44.4175C12.6419 44.8876 11.8643 45.1255 10.8835 45.1255H9.00904V47.4236H7.92383V39.8213H10.8835C11.8701 39.8213 12.6419 40.0592 13.2048 40.5293ZM12.4272 43.7327C12.787 43.4425 12.9727 43.0189 12.9727 42.4676C12.9727 41.9163 12.7928 41.4984 12.4272 41.2025C12.0674 40.9123 11.5393 40.7614 10.8545 40.7614H9.00904V44.1679H10.8545C11.5393 44.1738 12.0616 44.0287 12.4272 43.7327Z" fill="black"/>
<path id="Vector_9" d="M30.644 46.4777V47.4236H25.1309V39.8213H30.4931V40.7672H26.2161V43.1001H30.023V44.0229H26.2161V46.4777H30.644Z" fill="black"/>
<path id="Vector_10" d="M48.4193 39.8213V47.4178H47.5314L42.9758 41.7538V47.4178H41.8906V39.8213H42.7785L47.3341 45.4853V39.8213H48.4193Z" fill="black"/>
<path id="Vector_11" d="M61.6916 40.7672H59.0859V39.8213H65.3709V40.7672H62.7652V47.4178H61.6916V40.7672Z" fill="black"/>
<path id="Vector_12" d="M82.5716 39.8213V47.4178H81.4864V44.0345H77.1223V47.4178H76.0371V39.8213H77.1223V43.0885H81.4864V39.8213H82.5716Z" fill="black"/>
<path id="Vector_13" d="M95.6938 47.0001C95.0786 46.6636 94.5969 46.1993 94.2429 45.6074C93.8947 45.0154 93.7148 44.3538 93.7148 43.6226C93.7148 42.8914 93.8889 42.2298 94.2429 41.6379C94.5969 41.046 95.0786 40.5817 95.6938 40.2451C96.3089 39.9085 96.9995 39.7402 97.7655 39.7402C98.5258 39.7402 99.2106 39.9085 99.8257 40.2451C100.441 40.5817 100.923 41.046 101.271 41.6321C101.619 42.224 101.793 42.8856 101.793 43.6226C101.793 44.3596 101.619 45.027 101.271 45.6132C100.923 46.2051 100.441 46.6636 99.8257 47.0001C99.2106 47.3367 98.5258 47.505 97.7655 47.505C96.9995 47.505 96.3089 47.3367 95.6938 47.0001ZM99.2686 46.1587C99.7154 45.9033 100.064 45.5551 100.319 45.1141C100.574 44.673 100.702 44.1739 100.702 43.6226C100.702 43.0713 100.574 42.578 100.319 42.1312C100.064 41.6843 99.7096 41.3361 99.2686 41.0866C98.8217 40.8313 98.3226 40.7094 97.7655 40.7094C97.2084 40.7094 96.7035 40.8371 96.2509 41.0866C95.7982 41.3419 95.4442 41.6901 95.1889 42.1312C94.9335 42.5722 94.8059 43.0713 94.8059 43.6226C94.8059 44.1739 94.9335 44.6672 95.1889 45.1141C95.4442 45.5609 95.7982 45.9091 96.2509 46.1587C96.7035 46.4082 97.2084 46.5359 97.7655 46.5359C98.3226 46.5417 98.8275 46.414 99.2686 46.1587Z" fill="black"/>
<path id="Vector_14" d="M113.718 46.6401C113.155 46.0598 112.871 45.2299 112.871 44.1447V39.8213H113.956V44.0983C113.956 45.7232 114.67 46.5415 116.092 46.5415C116.788 46.5415 117.316 46.3384 117.688 45.938C118.059 45.5375 118.239 44.9224 118.239 44.0983V39.8213H119.29V44.1389C119.29 45.23 119.005 46.0656 118.442 46.6401C117.879 47.2147 117.09 47.5048 116.075 47.5048C115.071 47.5048 114.281 47.2147 113.718 46.6401Z" fill="black"/>
<path id="Vector_15" d="M131.562 47.238C131.028 47.0639 130.61 46.8318 130.309 46.5474L130.709 45.7002C130.999 45.9613 131.371 46.1702 131.823 46.3327C132.276 46.4952 132.74 46.5764 133.216 46.5764C133.843 46.5764 134.313 46.472 134.626 46.2573C134.94 46.0425 135.09 45.7582 135.09 45.4042C135.09 45.143 135.003 44.9341 134.835 44.7716C134.667 44.6091 134.458 44.4815 134.208 44.3944C133.959 44.3074 133.605 44.2087 133.152 44.1042C132.578 43.965 132.119 43.8315 131.771 43.6922C131.417 43.5529 131.121 43.344 130.872 43.0597C130.622 42.7753 130.5 42.3865 130.5 41.9048C130.5 41.4986 130.605 41.133 130.819 40.808C131.034 40.483 131.353 40.2219 131.788 40.0245C132.224 39.8272 132.763 39.7344 133.408 39.7344C133.854 39.7344 134.295 39.7924 134.731 39.9085C135.166 40.0245 135.537 40.1928 135.851 40.4076L135.491 41.2781C135.172 41.0749 134.835 40.924 134.47 40.8196C134.104 40.7151 133.756 40.6629 133.408 40.6629C132.792 40.6629 132.328 40.7732 132.026 40.9995C131.719 41.2258 131.568 41.516 131.568 41.87C131.568 42.1311 131.655 42.3401 131.829 42.5025C132.003 42.665 132.218 42.7927 132.473 42.8798C132.729 42.9726 133.077 43.0655 133.518 43.1699C134.087 43.3092 134.551 43.4427 134.899 43.582C135.247 43.7212 135.543 43.9301 135.793 44.2087C136.042 44.4931 136.164 44.8703 136.164 45.3462C136.164 45.7466 136.054 46.1064 135.839 46.4372C135.624 46.768 135.294 47.0291 134.853 47.2206C134.412 47.4121 133.866 47.5108 133.228 47.5108C132.647 47.505 132.096 47.4179 131.562 47.238Z" fill="black"/>
<path id="Vector_16" d="M152.746 46.4777V47.4236H147.232V39.8213H152.595V40.7672H148.318V43.1001H152.125V44.0229H148.318V46.4777H152.746Z" fill="black"/>
<path id="Vector_17" d="M164.543 47.238C164.009 47.0639 163.591 46.8318 163.289 46.5474L163.689 45.7002C163.98 45.9613 164.351 46.1702 164.804 46.3327C165.256 46.4952 165.721 46.5764 166.197 46.5764C166.823 46.5764 167.293 46.472 167.607 46.2573C167.92 46.0425 168.071 45.7582 168.071 45.4042C168.071 45.143 167.984 44.9341 167.816 44.7716C167.647 44.6091 167.438 44.4815 167.189 44.3944C166.939 44.3074 166.585 44.2087 166.133 44.1042C165.558 43.965 165.1 43.8315 164.751 43.6922C164.397 43.5529 164.102 43.344 163.852 43.0597C163.602 42.7753 163.481 42.3865 163.481 41.9048C163.481 41.4986 163.585 41.133 163.8 40.808C164.014 40.483 164.334 40.2219 164.769 40.0245C165.204 39.8272 165.744 39.7344 166.388 39.7344C166.835 39.7344 167.276 39.7924 167.711 39.9085C168.146 40.0245 168.518 40.1928 168.831 40.4076L168.471 41.2781C168.152 41.0749 167.816 40.924 167.45 40.8196C167.084 40.7151 166.736 40.6629 166.388 40.6629C165.773 40.6629 165.309 40.7732 165.007 40.9995C164.699 41.2258 164.548 41.516 164.548 41.87C164.548 42.1311 164.635 42.3401 164.81 42.5025C164.984 42.665 165.198 42.7927 165.454 42.8798C165.709 42.9726 166.057 43.0655 166.498 43.1699C167.067 43.3092 167.531 43.4427 167.879 43.582C168.228 43.7212 168.524 43.9301 168.773 44.2087C169.023 44.4931 169.145 44.8703 169.145 45.3462C169.145 45.7466 169.034 46.1064 168.82 46.4372C168.605 46.768 168.274 47.0291 167.833 47.2206C167.392 47.4121 166.846 47.5108 166.208 47.5108C165.628 47.505 165.076 47.4179 164.543 47.238Z" fill="black"/>
</g>
</g>
</svg>
