<svg width="115" height="115" viewBox="0 0 115 115" fill="none" xmlns="http://www.w3.org/2000/svg">
<g id="Group 21">
<path id="Vector" d="M106.776 81.2519C105.952 80.8217 105.048 80.724 103.324 81.4689L102.603 81.7835C101.199 82.3837 100.53 82.5066 99.6942 82.051C99.4719 81.9355 99.2755 81.7752 99.1175 81.5802C98.9594 81.3851 98.843 81.1595 98.7754 80.9174C98.7079 80.6752 98.6907 80.4217 98.7248 80.1726C98.759 79.9235 98.8439 79.6841 98.9741 79.4694C99.3954 78.6486 100.152 78.023 101.134 78.3051C101.296 78.3549 101.453 78.4203 101.603 78.5003C101.7 78.5509 101.743 78.5582 101.779 78.5003C101.815 78.4425 101.779 78.3846 101.635 78.3015C101.448 78.1894 100.987 77.8856 100.378 77.5783C100.051 77.4084 99.9967 77.3939 99.8239 77.5204C99.328 77.9144 98.9279 78.4164 98.6537 78.9885C98.2962 79.6295 98.1429 80.3652 98.2144 81.0965C98.286 81.5323 98.4576 81.9455 98.7157 82.3032C98.9738 82.6609 99.3113 82.9534 99.7015 83.1575C100.674 83.6637 101.603 83.7107 103.475 82.8574L103.918 82.6549C105.43 81.957 106.031 81.8666 106.726 82.2282C107.612 82.6874 107.806 83.6167 107.363 84.4591C106.784 85.58 106.103 85.6451 105.923 85.6487C105.686 85.6322 105.453 85.5798 105.232 85.4933C105.127 85.4571 105.063 85.4354 105.023 85.4933C104.983 85.5511 105.066 85.6234 105.261 85.7247C106.085 86.155 106.463 86.4117 106.524 86.4478C106.586 86.484 106.622 86.4659 106.672 86.3683C106.751 86.2268 106.845 86.0946 106.953 85.9742C107.236 85.6437 107.478 85.2794 107.673 84.8894C108.472 83.3419 108.087 81.9028 106.787 81.2302" fill="#241F21"/>
<path id="Vector_2" d="M92.1946 101.395C92.1478 101.326 92.1046 101.308 92.0686 101.333C92.0326 101.359 92.0074 101.409 92.0326 101.525C92.0669 101.683 92.0838 101.844 92.083 102.006C92.083 102.404 91.8706 102.668 91.1793 103.163L89.5266 104.334L86.2502 99.5435C85.5049 98.4587 84.8928 97.562 84.6264 97.045C84.4463 96.6834 84.3311 96.3977 84.5255 96.1989C84.6182 96.0948 84.722 96.0015 84.8352 95.9205C84.9 95.8734 84.9 95.8228 84.8784 95.7903C84.8568 95.7577 84.7596 95.736 84.6336 95.8228C84.2987 96.0579 83.6074 96.5785 83.5534 96.6183C83.4994 96.6581 82.7613 97.1137 82.142 97.5403C82.0196 97.6271 81.9836 97.6994 82.0232 97.7573C82.0628 97.8151 82.0916 97.8079 82.16 97.7573C82.2284 97.7067 82.5201 97.5403 82.7001 97.4535C83.0601 97.2655 83.305 97.4535 83.5642 97.7754C83.9459 98.2092 84.5579 99.106 85.3033 100.194L88.5761 104.985L87.1359 105.943C86.0377 106.667 85.5913 106.594 85.3357 106.276L85.2384 106.16C85.1196 106.009 85.0728 105.99 85.0152 106.03C84.9576 106.07 84.9684 106.128 85.0368 106.233C85.1052 106.338 85.6237 107.162 85.8577 107.502C85.9009 107.571 85.9477 107.636 86.0053 107.599C86.063 107.563 86.1278 107.462 86.2826 107.325C86.5181 107.098 86.7735 106.894 87.0459 106.714L91.2765 103.799C91.4097 103.705 91.8562 103.438 92.2054 103.239C92.3937 103.147 92.5918 103.078 92.7959 103.033C92.8391 103.004 92.7959 102.823 92.7599 102.74C92.7239 102.657 92.281 101.503 92.2018 101.391" fill="#241F21"/>
<path id="Vector_3" d="M63.4471 114.278C63.1525 114.363 62.8494 114.415 62.5434 114.434C61.0816 114.553 60.0987 113.602 59.9618 111.903C59.8754 110.865 60.1707 110.095 60.6207 109.733C60.9126 109.521 61.2613 109.401 61.6217 109.39C62.1038 109.332 62.5925 109.366 63.0619 109.491C63.0932 109.505 63.1201 109.527 63.1398 109.555C63.1594 109.583 63.1711 109.616 63.1735 109.65L63.5335 114.127C63.5381 114.162 63.5312 114.198 63.5137 114.23C63.4961 114.261 63.469 114.286 63.4363 114.3M65.7406 114.441C65.5862 114.456 65.4307 114.456 65.2762 114.441C64.8153 114.383 64.6893 114.17 64.6245 113.718C64.5597 113.266 64.5309 112.901 64.3545 110.764L64.16 108.356C64.052 107.04 63.9656 105.958 63.9872 105.38C64.0088 104.975 64.052 104.657 64.3185 104.592C64.4512 104.551 64.5874 104.522 64.7253 104.505C64.8045 104.505 64.8297 104.454 64.8261 104.415C64.8225 104.375 64.7505 104.31 64.5993 104.321C64.1888 104.357 63.3355 104.465 63.3211 104.469C63.2527 104.469 62.3922 104.501 61.6397 104.566C61.4921 104.566 61.4272 104.624 61.4308 104.693C61.4344 104.762 61.4668 104.773 61.5461 104.765C61.7523 104.755 61.9591 104.755 62.1653 104.765C62.5794 104.787 62.6838 105.083 62.7594 105.488C62.8746 106.06 62.9611 107.141 63.0691 108.457L63.0943 108.782C63.0943 108.851 63.0763 108.895 63.0079 108.902L61.33 109.014C61.2962 109.017 61.2622 109.012 61.2304 109C61.1987 108.989 61.17 108.97 61.1464 108.945C60.844 108.612 60.1311 107.745 59.4938 107.04C58.6332 106.078 58.1004 105.445 57.4883 105.177C57.0169 104.996 56.505 104.949 56.0085 105.04L55.0435 105.12C54.7987 105.138 54.7159 105.174 54.7231 105.253C54.7303 105.333 54.7843 105.333 54.8527 105.326C55.0313 105.312 55.2106 105.312 55.3892 105.326C56.0515 105.391 56.6691 105.691 57.1318 106.172C57.9923 106.956 59.0185 108.099 60.2535 109.426C59.1193 110.666 58.7809 111.711 58.8637 112.724C58.8978 113.084 59.0127 113.432 59.1997 113.741C59.3868 114.051 59.6412 114.313 59.9438 114.51C60.7107 114.973 61.6289 114.976 62.4894 114.908C62.9106 114.871 63.9296 114.745 64.0916 114.734C64.16 114.734 65.0242 114.698 65.6362 114.647C65.7875 114.647 65.8523 114.604 65.8451 114.521C65.8379 114.438 65.7839 114.441 65.7298 114.448" fill="#241F21"/>
<path id="Vector_4" d="M38.2172 111.866C38.0566 111.797 37.9053 111.707 37.7672 111.599C37.3891 111.27 37.2667 111.046 37.3171 110.221L37.814 101.182C37.8572 100.459 37.8752 100.271 37.7276 100.202C37.5799 100.133 37.4611 100.321 36.7662 100.925C36.1973 101.402 35.0164 102.487 33.4177 103.951C32.0748 105.188 30.7642 106.392 30.4653 106.678C29.7452 107.368 29.4536 107.495 29.2412 107.531C29.0118 107.551 28.7814 107.507 28.5751 107.405C28.4779 107.358 28.4166 107.358 28.3878 107.405C28.359 107.452 28.4202 107.528 28.5571 107.593C28.9171 107.759 29.468 107.954 29.5436 108.005C29.6912 108.077 30.2457 108.366 30.7426 108.612C30.9406 108.703 31.027 108.713 31.0594 108.638C31.0918 108.562 31.0306 108.536 30.9586 108.5C30.7954 108.434 30.6435 108.342 30.5085 108.229C30.4724 108.177 30.4508 108.116 30.4457 108.052C30.4407 107.989 30.4524 107.925 30.4797 107.867C30.572 107.714 30.6834 107.573 30.811 107.448C31.4987 106.678 35.1748 103.109 36.669 101.771L36.0965 109.263C36.0942 109.664 36.0459 110.063 35.9525 110.453C35.932 110.508 35.8937 110.556 35.8435 110.587C35.7933 110.619 35.7341 110.632 35.6753 110.626C35.5007 110.604 35.3313 110.551 35.1748 110.471C35.0884 110.431 35.0416 110.438 35.0128 110.5C34.984 110.561 35.0812 110.637 35.3044 110.742C35.7761 110.962 36.3522 111.187 36.4782 111.245C36.6042 111.302 37.3171 111.682 37.9184 111.968C38.1164 112.058 38.246 112.105 38.2784 112.029C38.3108 111.953 38.2784 111.932 38.2208 111.895" fill="#241F21"/>
<path id="Vector_5" d="M20.8508 87.5111C20.7932 87.4171 20.4907 86.8422 20.1991 86.4264C20.1127 86.289 20.0443 86.2348 19.9651 86.2854C19.8858 86.336 19.9363 86.3685 19.9651 86.4155C20.0558 86.5664 20.1306 86.7264 20.1883 86.8928C20.2255 86.9865 20.2293 87.0902 20.1992 87.1864C20.169 87.2826 20.1066 87.3654 20.0227 87.4207C19.8246 87.5473 19.6194 87.6811 19.4286 87.7823L13.783 90.7545L13.7542 90.7111C13.9846 90.3821 15.9145 87.3086 16.0657 87.07C16.1449 86.9398 17.5059 84.6619 17.866 83.9966C18.1396 83.5121 18.226 83.3783 18.1684 83.2987C18.1108 83.2192 17.974 83.2264 17.3115 83.2987L9.51278 84.3148L9.49117 84.2786L15.1188 79.8782C15.3096 79.7227 15.5148 79.607 15.5616 79.6576C15.6084 79.7083 15.648 79.7191 15.6948 79.6866C15.7417 79.654 15.7489 79.5709 15.6048 79.2888C15.3636 78.8405 14.5787 77.5822 14.4167 77.3255C14.3303 77.1881 14.2294 77.1049 14.1574 77.1519C14.0854 77.1989 14.125 77.2242 14.1574 77.2821C14.3178 77.5347 14.4392 77.8102 14.5175 78.0992C14.6723 78.6994 14.0782 79.184 13.6966 79.5094L7.10043 84.8427C6.8952 85.0054 6.82679 85.0994 6.8772 85.179C6.92761 85.2585 7.03922 85.2549 7.17244 85.2368L16.5806 83.9857L11.5867 92.1864C11.4966 92.3274 11.4823 92.4033 11.5255 92.472C11.5687 92.5407 11.6803 92.5371 11.8135 92.472L19.8606 88.4766C20.3287 88.2415 20.8004 87.9884 21.11 88.3247C21.2088 88.4226 21.2958 88.5318 21.3693 88.6501C21.4053 88.708 21.4629 88.7513 21.4989 88.7297C21.5349 88.708 21.5493 88.5814 21.4773 88.4657C21.2792 88.1511 20.8904 87.6196 20.822 87.5148" fill="#241F21"/>
<path id="Vector_6" d="M113.294 58.2086C112.631 57.8796 111.166 57.2287 109.186 56.3501C107.519 55.6269 105.891 54.9038 105.509 54.7338C104.588 54.3433 104.361 54.1336 104.242 53.9528C104.131 53.7496 104.078 53.5191 104.091 53.2875C104.091 53.1791 104.066 53.1248 103.997 53.1212C103.929 53.1176 103.9 53.2044 103.896 53.3526C103.896 53.7503 103.918 54.3433 103.918 54.4373C103.918 54.6001 103.86 55.2328 103.846 55.7824C103.846 56.003 103.868 56.0861 103.95 56.0861C104.033 56.0861 104.033 56.0211 104.037 55.9379C104.032 55.7621 104.054 55.5866 104.102 55.4172C104.135 55.3629 104.181 55.3182 104.237 55.2877C104.293 55.2572 104.355 55.242 104.419 55.2437C104.596 55.2655 104.771 55.3104 104.937 55.3775C105.916 55.7029 110.651 57.6409 112.469 58.4762L105.409 60.9675C105.043 61.1315 104.66 61.2528 104.267 61.329C104.208 61.3328 104.15 61.3166 104.101 61.2833C104.052 61.2499 104.016 61.2011 103.997 61.1446C103.948 60.9757 103.929 60.7996 103.94 60.624C103.94 60.5263 103.914 60.483 103.846 60.483C103.778 60.483 103.749 60.6059 103.742 60.8445C103.742 61.3652 103.742 61.9871 103.742 62.1245C103.742 62.2619 103.68 63.0719 103.666 63.7299C103.666 63.9505 103.666 64.0915 103.752 64.0915C103.839 64.0915 103.85 64.0662 103.853 63.983C103.852 63.8074 103.873 63.6322 103.918 63.4624C104.066 62.9851 104.22 62.7826 104.998 62.497L113.452 59.3042C114.115 59.0583 114.309 58.9932 114.313 58.8269C114.316 58.6606 114.097 58.6317 113.283 58.2303" fill="#241F21"/>
<path id="Vector_7" d="M7.77752 34.594C8.60204 35.0242 9.50936 35.1219 11.2304 34.377L11.9505 34.0588C13.3547 33.4586 14.0244 33.3574 14.8633 33.7913C15.0858 33.9072 15.2822 34.0678 15.4403 34.2632C15.5984 34.4585 15.7149 34.6844 15.7824 34.9269C15.8499 35.1693 15.8671 35.4231 15.8329 35.6725C15.7986 35.9219 15.7137 36.1615 15.5834 36.3766C15.1622 37.1937 14.4061 37.8229 13.4231 37.5408C13.2596 37.4906 13.1016 37.424 12.9515 37.342C12.8542 37.2913 12.8146 37.2841 12.775 37.36C12.7354 37.436 12.793 37.4757 12.919 37.5589C13.1063 37.671 13.5671 37.9711 14.1756 38.2821C14.5033 38.452 14.5609 38.4665 14.7337 38.3399C15.2293 37.9482 15.6285 37.4471 15.9003 36.8755C16.2565 36.234 16.4097 35.4987 16.3395 34.7675C16.2718 34.3276 16.1023 33.9097 15.8447 33.5474C15.5871 33.185 15.2485 32.8884 14.8561 32.6812C13.884 32.1786 12.9551 32.128 11.0828 32.9813L10.6399 33.1838C9.12772 33.8853 8.52642 33.972 7.83152 33.6141C6.9458 33.1549 6.75137 32.222 7.19783 31.3831C7.77391 30.2586 8.45441 30.1935 8.63804 30.1899C8.87391 30.2081 9.10573 30.2617 9.32573 30.349C9.43015 30.3852 9.49496 30.4033 9.53457 30.3309C9.57418 30.2586 9.49136 30.2008 9.29694 30.0995C8.47242 29.6729 8.09436 29.4161 8.03676 29.3764C7.97915 29.3366 7.93594 29.3583 7.88913 29.4523C7.8103 29.5948 7.71612 29.7282 7.60829 29.85C7.32519 30.1808 7.08337 30.5451 6.88819 30.9348C6.08888 32.486 6.47413 33.9214 7.77392 34.5976" fill="#241F21"/>
<path id="Vector_8" d="M29.9276 18.7963C30.1076 19.1579 30.2228 19.4435 30.0284 19.646C29.9348 19.7491 29.8311 19.8424 29.7187 19.9244C29.6539 19.9714 29.6539 20.0184 29.6755 20.0546C29.6971 20.0907 29.7944 20.1052 29.9204 20.022C30.2588 19.787 30.9465 19.2627 31.0005 19.223C31.0545 19.1832 31.7926 18.7276 32.4119 18.3009C32.5379 18.2141 32.5703 18.1418 32.5307 18.0876C32.4911 18.0334 32.4623 18.0334 32.3939 18.0876C32.2192 18.1981 32.039 18.2995 31.8538 18.3913C31.4938 18.5793 31.249 18.3913 30.9897 18.0731C30.6081 17.6356 29.996 16.7389 29.2507 15.6542L25.9778 10.8596L27.418 9.90505C28.4982 9.18189 28.9662 9.25421 29.2183 9.56879L29.3119 9.68811C29.4307 9.83636 29.4775 9.85805 29.5351 9.81828C29.5927 9.7785 29.5819 9.71704 29.5135 9.61579C29.4451 9.51455 28.9266 8.68653 28.6962 8.34665C28.6494 8.27795 28.6026 8.20925 28.545 8.24902C28.4874 8.2888 28.4226 8.38281 28.2677 8.52383C28.0329 8.75003 27.7774 8.95342 27.5044 9.13128L23.2774 12.0492C23.1406 12.1432 22.6977 12.4108 22.3449 12.6061C22.1573 12.6991 21.959 12.7683 21.7544 12.8122C21.7112 12.8447 21.7544 13.0219 21.7904 13.105C21.8264 13.1882 22.2693 14.3416 22.3485 14.4537C22.4277 14.5658 22.4421 14.5405 22.4745 14.5188C22.5069 14.4971 22.5393 14.4429 22.5105 14.3272C22.4763 14.168 22.4594 14.0055 22.4601 13.8427C22.4601 13.4485 22.6725 13.181 23.3638 12.6892L25.0273 11.4924L28.3037 16.2833C29.049 17.3681 29.6611 18.2684 29.9276 18.7818" fill="#241F21"/>
<path id="Vector_9" d="M51.0954 1.56732C51.391 1.48045 51.6954 1.42708 52.0028 1.40822C53.461 1.2889 54.4439 2.24346 54.5843 3.93927C54.6672 4.98062 54.3719 5.74717 53.9218 6.10875C53.6316 6.32441 53.2819 6.44443 52.9209 6.45225C52.4389 6.51396 51.9495 6.47955 51.4807 6.35101C51.4496 6.3384 51.4229 6.317 51.4037 6.28939C51.3845 6.26179 51.3737 6.22918 51.3727 6.19553L51.0126 1.71918C51.008 1.68359 51.015 1.64746 51.0325 1.61618C51.05 1.5849 51.0772 1.56015 51.1098 1.54562M48.8055 1.40461C48.9612 1.39003 49.1179 1.39003 49.2736 1.40461C49.7309 1.46246 49.8569 1.67218 49.9217 2.12777C49.9865 2.58336 50.0153 2.94855 50.1917 5.08186L50.3753 7.51529C50.4834 8.82783 50.5734 9.90895 50.5518 10.4911C50.5266 10.8924 50.4834 11.2142 50.2169 11.2757C50.0848 11.3199 49.9484 11.3502 49.8101 11.3661C49.7308 11.3661 49.7056 11.4167 49.7092 11.4565C49.7128 11.4963 49.7849 11.5614 49.9361 11.5469C50.3465 11.5144 51.2035 11.4023 51.2143 11.4023C51.2827 11.4023 52.1468 11.3661 52.8957 11.3046C53.0433 11.3046 53.1117 11.2468 53.1045 11.1781C53.0973 11.1094 53.0721 11.0985 52.9893 11.1058C52.783 11.1163 52.5763 11.1163 52.37 11.1058C51.956 11.0841 51.8516 10.7912 51.7759 10.3826C51.6643 9.81494 51.5743 8.73382 51.4663 7.41767L51.4411 7.08863C51.4411 7.01993 51.4411 6.97654 51.5275 6.97293L53.2053 6.86084C53.2392 6.85694 53.2734 6.86114 53.3054 6.87307C53.3373 6.88501 53.3659 6.90436 53.389 6.92954C53.6914 7.26219 54.4079 8.12637 55.0416 8.83145C55.9021 9.79686 56.435 10.426 57.0471 10.6936C57.5185 10.8743 58.03 10.923 58.5269 10.8346L59.4954 10.755C59.7403 10.7333 59.8195 10.7008 59.8123 10.6176C59.8051 10.5345 59.7511 10.5417 59.6827 10.5453C59.5041 10.5595 59.3247 10.5595 59.1462 10.5453C58.4837 10.4774 57.8664 10.1764 57.4035 9.69562C56.543 8.91099 55.5169 7.7684 54.2819 6.4414C55.4161 5.2048 55.7581 4.15622 55.6753 3.1438C55.6399 2.78434 55.5244 2.43748 55.3375 2.12891C55.1505 1.82034 54.8968 1.55797 54.5951 1.36121C53.8318 0.898393 52.9101 0.891165 52.0532 0.963481C51.6283 0.996023 50.613 1.12257 50.4474 1.13704C50.3789 1.13704 49.5148 1.17319 48.9027 1.2202C48.7515 1.2202 48.6867 1.2672 48.6939 1.35037C48.7011 1.43353 48.7551 1.4263 48.8091 1.42268" fill="#241F21"/>
<path id="Vector_10" d="M76.3432 3.97604C76.5021 4.04848 76.652 4.13951 76.7897 4.24723C77.1677 4.57265 77.2901 4.79683 77.2397 5.62124L76.7429 14.6788C76.7033 15.4019 76.6817 15.59 76.8329 15.6623C76.9841 15.7346 77.0993 15.543 77.7906 14.9572C78.3595 14.4799 79.5405 13.3952 81.1391 11.9272C82.4821 10.6906 83.7963 9.48652 84.0915 9.20087C84.8116 8.51025 85.1033 8.38731 85.3157 8.34754C85.5453 8.33004 85.7754 8.37501 85.9818 8.47771C86.0826 8.52471 86.1438 8.52109 86.169 8.45962C86.1942 8.39816 86.1366 8.33669 85.9998 8.27523C85.6397 8.10528 85.0889 7.89557 85.0168 7.85941C84.8656 7.79071 84.3148 7.49783 83.8179 7.25557C83.6199 7.16156 83.5334 7.15072 83.4974 7.22665C83.4614 7.30258 83.5262 7.3315 83.5982 7.36404C83.7608 7.43159 83.9125 7.52298 84.0483 7.63522C84.0866 7.68661 84.1097 7.74785 84.1148 7.81184C84.1199 7.87583 84.1068 7.93995 84.0771 7.9968C83.985 8.15136 83.8737 8.29353 83.7459 8.41986C83.0582 9.19002 79.3821 12.7588 77.8878 14.093L78.4603 6.60111C78.4632 6.20038 78.5116 5.80128 78.6043 5.41151C78.6263 5.35683 78.665 5.31057 78.7148 5.27938C78.7646 5.24818 78.823 5.23368 78.8816 5.23796C79.0559 5.26319 79.225 5.31694 79.382 5.39706C79.4685 5.43683 79.5189 5.42959 79.5477 5.36813C79.5765 5.30666 79.4757 5.22711 79.2524 5.12225C78.7808 4.90169 78.2047 4.68113 78.0787 4.62327C77.9526 4.56542 77.2397 4.18576 76.6385 3.90011C76.4404 3.8061 76.3108 3.76272 76.2784 3.83503C76.246 3.90735 76.2784 3.93627 76.3396 3.96882" fill="#241F21"/>
<path id="Vector_11" d="M105.07 31.5603L99.4423 35.9607C99.2478 36.1198 99.0462 36.2319 98.9958 36.1812C98.9454 36.1306 98.9094 36.1234 98.8626 36.1523C98.8158 36.1812 98.8086 36.2716 98.9562 36.55C99.1938 37.002 99.9787 38.2603 100.141 38.5134C100.231 38.6508 100.332 38.734 100.4 38.6906C100.468 38.6472 100.436 38.6183 100.4 38.5604C100.232 38.3081 100.105 38.0312 100.022 37.7396C99.8671 37.1394 100.461 36.6549 100.846 36.3295L107.439 31.0179C107.644 30.8552 107.713 30.7612 107.662 30.678C107.612 30.5948 107.5 30.6021 107.367 30.6238L97.9588 31.8748L102.942 23.6525C103.032 23.5151 103.05 23.4392 103.003 23.3705C102.956 23.3018 102.852 23.3054 102.715 23.3705L94.6716 27.3696C94.2035 27.6046 93.7318 27.8577 93.4186 27.5214C93.3215 27.4229 93.2358 27.3138 93.163 27.196C93.127 27.1381 93.0657 27.0948 93.0297 27.1164C92.9937 27.1381 92.9794 27.2647 93.0514 27.3804C93.253 27.6914 93.6418 28.2265 93.7066 28.3277C93.7714 28.429 94.0667 29.0003 94.3583 29.4125C94.4483 29.5535 94.5132 29.6077 94.596 29.5571C94.6788 29.5065 94.6248 29.4739 94.596 29.4269C94.5074 29.2749 94.4327 29.1152 94.3727 28.9497C94.3353 28.8554 94.3313 28.7511 94.3615 28.6543C94.3916 28.5575 94.4541 28.4741 94.5384 28.4181C94.7364 28.2916 94.9416 28.1578 95.1361 28.0566L100.782 25.0952L100.81 25.1422C100.58 25.4713 98.6501 28.5447 98.4989 28.7797C98.4233 28.9135 97.0587 31.1914 96.6987 31.8531C96.425 32.3413 96.3386 32.4714 96.3998 32.5546C96.461 32.6378 96.5907 32.6269 97.2532 32.5546L105.052 31.5386L105.07 31.5603Z" fill="#241F21"/>
<path id="Vector_12" d="M10.3878 61.8281C10.4973 62.0307 10.5496 62.2595 10.539 62.4898C10.539 62.5983 10.5642 62.6561 10.6326 62.6561C10.7011 62.6561 10.7299 62.5766 10.7299 62.4247C10.7299 62.027 10.7083 61.434 10.7083 61.34C10.7083 61.1773 10.7659 60.5445 10.7767 59.9949C10.7767 59.7744 10.7551 59.6912 10.6723 59.6912C10.5894 59.6912 10.5894 59.7599 10.5894 59.8394C10.5939 60.0153 10.5721 60.1908 10.5246 60.3601C10.4936 60.417 10.4468 60.4637 10.3899 60.4945C10.3331 60.5252 10.2686 60.5389 10.2042 60.5337C10.0271 60.514 9.85369 60.469 9.68931 60.3999C8.70997 60.0817 3.9681 58.1509 2.14984 57.3192L9.20324 54.8135C9.56825 54.6484 9.95135 54.5271 10.3446 54.4519C10.4033 54.45 10.461 54.4668 10.5095 54.5C10.5581 54.5331 10.5949 54.5808 10.6146 54.6363C10.6633 54.8066 10.6839 54.9837 10.6758 55.1606C10.6758 55.2546 10.7011 55.298 10.7695 55.298C10.8379 55.298 10.8667 55.1751 10.8703 54.9364C10.8703 54.4158 10.8703 53.7938 10.8703 53.6564C10.8703 53.519 10.9315 52.7091 10.9423 52.051C10.9423 51.8305 10.9423 51.6895 10.8523 51.6895C10.7623 51.6895 10.7587 51.7148 10.7551 51.7979C10.7551 51.9735 10.7333 52.1484 10.6903 52.3186C10.5462 52.7959 10.3914 52.9984 9.6101 53.2876L1.1597 56.4948C0.497207 56.7443 0.306378 56.8094 0.302778 56.9757C0.299177 57.1421 0.518814 57.171 1.33253 57.5723C1.99502 57.9014 3.46403 58.545 5.44431 59.42C7.11494 60.1432 8.74238 60.8663 9.12044 61.029C10.0458 61.4159 10.2726 61.6293 10.395 61.8101" fill="#241F21"/>
<path id="Vector_13" d="M58.8291 81.2057C58.4547 82.3315 58.0802 82.3315 57.7058 81.2057L52.2582 65.5023L47.9988 53.7293L55.1998 34.0341C55.5743 32.906 55.9475 32.906 56.3196 34.0341L61.7672 49.7375L66.0302 61.5105L58.8291 81.2057ZM85.8546 79.8932C84.841 79.9014 83.8324 79.7489 82.8661 79.4412C81.2963 78.9929 79.1288 77.7924 76.4392 71.1249C74.981 67.4766 72.7919 61.8251 70.448 55.7325L75.2439 42.5602C76.5869 38.8106 78.0811 35.9577 81.5196 35.5057C82.1172 35.4334 83.1614 35.3575 83.6799 35.3575C84.0399 35.3575 84.3532 35.2056 84.3532 34.9055C84.3532 34.4572 83.9067 34.3053 82.9346 34.3053C79.4241 34.3053 75.3123 34.5331 74.4914 34.5331C73.6704 34.5331 72.2662 34.3053 70.4732 34.3053C69.7999 34.3053 69.3534 34.4572 69.3534 34.9055C69.3534 35.2056 69.5767 35.3575 70.1023 35.3575H70.8476C72.1186 35.3575 73.6884 36.0336 73.6884 37.527C73.6138 39.2484 73.2599 40.946 72.6407 42.5529L69.2166 52.5253C64.5719 40.4196 59.7365 27.6486 59.0164 25.866C58.1198 23.5411 57.821 23.165 57.3709 23.165C56.9209 23.165 56.6256 23.6134 55.7291 26.0902L46.8142 50.5764L41.9175 37.527C41.4675 36.3265 41.9175 35.6504 42.364 35.4985C42.6628 35.4262 42.8897 35.2743 42.8897 34.9742C42.8897 34.5259 42.0652 34.5259 40.6466 34.4499C35.4906 34.2981 30.0358 34.2981 28.9161 34.2981C28.0916 34.2981 27.4219 34.4499 27.4219 34.8983C27.4219 35.2599 27.7207 35.3503 28.1672 35.3503C29.1805 35.3424 30.1888 35.4937 31.1556 35.7986C32.7254 36.2506 34.8929 37.451 37.5825 44.1149C39.0227 47.7633 41.2334 53.4148 43.5738 59.5074L38.7815 72.6905C37.4349 76.4401 35.9407 79.293 32.5058 79.7413C31.9081 79.8173 30.8604 79.8932 30.3455 79.8932C29.9854 79.8932 29.6722 80.0415 29.6722 80.3416C29.6722 80.7935 30.1223 80.9418 31.0908 80.9418C34.6049 80.9418 38.7131 80.7176 39.5376 80.7176C40.3621 80.7176 41.7591 80.9418 43.5522 80.9418C44.2255 80.9418 44.6719 80.7935 44.6719 80.3416C44.6719 80.0415 44.4487 79.8932 43.9266 79.8932H43.1741C41.9031 79.8932 40.3369 79.2171 40.3369 77.7237C40.4094 76.0024 40.7621 74.3046 41.3811 72.6978L44.8087 62.7254C49.4534 74.8347 54.2961 87.5985 54.9982 89.3811C55.8947 91.706 56.19 92.082 56.64 92.082C57.0901 92.082 57.3889 91.6301 58.2855 89.1569L67.1967 64.6707L72.1114 77.7237C72.5579 78.9242 72.1114 79.6003 71.6614 79.7486C71.3625 79.8245 71.1393 79.9764 71.1393 80.2765C71.1393 80.7248 71.9602 80.7248 73.3824 80.8008C78.5347 80.949 83.9895 80.949 85.1129 80.949C85.9338 80.949 86.6071 80.8008 86.6071 80.3488C86.6071 79.9872 86.3082 79.9004 85.8582 79.9004" fill="black"/>
</g>
</svg>
