<svg width="142" height="154" viewBox="0 0 142 154" fill="none" xmlns="http://www.w3.org/2000/svg">
<g id="Group 21">
<path id="Vector" d="M74.9598 26.6504L75.5598 26.7604L76.5598 29.8104L78.3598 27.2604L78.9498 27.3704L76.6098 30.5904C76.4216 30.8786 76.1924 31.1379 75.9297 31.3604C75.8387 31.4186 75.7368 31.4574 75.6301 31.4746C75.5235 31.4918 75.4144 31.487 75.3098 31.4604C75.1171 31.4179 74.9317 31.3471 74.7598 31.2504L74.8498 30.7304C74.9877 30.8543 75.1574 30.9374 75.3398 30.9704C75.4784 30.995 75.6213 30.9664 75.7398 30.8904C75.935 30.7358 76.0952 30.5415 76.2098 30.3204L74.9598 26.6504ZM78.9598 28.6504L81.5498 29.1304L80.9498 32.4104L80.3998 32.3104L80.9098 29.4904L79.4297 29.2204L79.1398 30.8504C79.1041 31.1056 79.0438 31.3568 78.9598 31.6004C78.9101 31.7223 78.8177 31.8219 78.6998 31.8804C78.5348 31.9391 78.3547 31.9391 78.1898 31.8804L77.7498 31.7804L77.8298 31.3104L78.0798 31.3604C78.1625 31.3746 78.247 31.3746 78.3298 31.3604C78.3802 31.3421 78.4227 31.3067 78.4498 31.2604C78.5045 31.0976 78.5447 30.9303 78.5698 30.7604L78.9598 28.6504ZM81.9598 32.5904L82.0798 31.9604L82.7098 32.0704L82.5998 32.7104L81.9598 32.5904ZM87.2898 30.8704L87.1898 31.4004L88.8798 31.7104C88.805 32.1502 88.5786 32.55 88.2398 32.8404C88.0314 32.9986 87.7826 33.0947 87.522 33.1178C87.2614 33.1409 86.9996 33.0899 86.7667 32.9709C86.5337 32.8518 86.3392 32.6694 86.2053 32.4446C86.0714 32.2199 86.0036 31.9619 86.0098 31.7004H85.3998C85.3921 32.1538 85.5539 32.5937 85.8535 32.9341C86.1532 33.2744 86.5691 33.4906 87.0198 33.5404C87.3188 33.6205 87.633 33.6259 87.9347 33.5562C88.2364 33.4865 88.5162 33.3437 88.7498 33.1404C89.1987 32.7154 89.4822 32.1449 89.5498 31.5304C89.6301 31.1445 89.6301 30.7463 89.5498 30.3604C89.4343 29.991 89.2141 29.663 88.9159 29.4163C88.6177 29.1696 88.2542 29.0147 87.8698 28.9704C87.4531 28.8805 87.0187 28.926 86.6298 29.1004C86.2674 29.2866 85.9785 29.5896 85.8098 29.9604L86.3698 30.2204C86.4756 29.9483 86.6777 29.7247 86.9377 29.5919C87.1977 29.4591 87.4974 29.4266 87.7798 29.5004C87.9793 29.5202 88.1721 29.5832 88.3448 29.6851C88.5175 29.787 88.666 29.9253 88.7798 30.0904C88.9869 30.4356 89.0616 30.8443 88.9898 31.2404L87.2898 30.8704ZM92.2898 33.2204L92.8298 33.3904C92.7256 33.7253 92.5059 34.0124 92.2098 34.2004C91.9088 34.3791 91.5499 34.4329 91.2098 34.3504C91.0068 34.3222 90.8123 34.2504 90.6397 34.1399C90.4671 34.0294 90.3204 33.8829 90.2098 33.7104C89.9799 33.3034 89.9155 32.8236 90.0298 32.3704C90.0831 32.0526 90.2023 31.7494 90.3798 31.4804C90.5324 31.2416 90.7616 31.0618 91.0298 30.9704C91.2943 30.8835 91.5767 30.8663 91.8498 30.9204C92.165 30.9634 92.4552 31.1156 92.6698 31.3504C92.8755 31.5845 92.983 31.889 92.9698 32.2004H92.4098C92.4098 32.0026 92.3468 31.8099 92.2298 31.6504C92.1176 31.5173 91.9616 31.4286 91.7898 31.4004C91.6608 31.3731 91.5274 31.375 91.3993 31.4062C91.2712 31.4373 91.1518 31.4969 91.0498 31.5804C90.8023 31.8196 90.6466 32.1381 90.6098 32.4804C90.5225 32.8132 90.5507 33.1657 90.6898 33.4804C90.752 33.5928 90.8395 33.6893 90.9453 33.7622C91.0512 33.8351 91.1726 33.8824 91.2998 33.9004C91.4988 33.9452 91.7073 33.9092 91.8798 33.8004C92.0677 33.6636 92.202 33.4655 92.2598 33.2404L92.2898 33.2204ZM93.7098 31.3504L96.2998 31.8204L95.6998 35.1104L95.1498 35.0104L95.6598 32.1804L94.1797 31.9104L93.6698 34.7404L93.1098 34.6304L93.7098 31.3504ZM98.9898 34.6104L99.5498 34.7904C99.4193 35.0885 99.1896 35.3323 98.8998 35.4804C98.5882 35.628 98.236 35.6667 97.8998 35.5904C97.6844 35.5705 97.4758 35.5049 97.2878 35.398C97.0999 35.2911 96.9369 35.1453 96.8098 34.9704C96.6906 34.7746 96.6117 34.5571 96.5773 34.3305C96.543 34.1039 96.554 33.8727 96.6098 33.6504C96.6647 33.1768 96.9013 32.743 97.2698 32.4404C97.4386 32.3157 97.6319 32.228 97.837 32.1832C98.0421 32.1384 98.2543 32.1375 98.4598 32.1804C98.6634 32.2104 98.8582 32.284 99.0308 32.3962C99.2033 32.5083 99.3497 32.6565 99.4598 32.8304C99.692 33.2364 99.76 33.7159 99.6498 34.1704C99.646 34.2203 99.646 34.2705 99.6498 34.3204L97.1998 33.8704C97.1391 34.1754 97.1925 34.4921 97.3498 34.7604C97.422 34.8695 97.5163 34.9624 97.6265 35.033C97.7367 35.1036 97.8605 35.1504 97.9898 35.1704C98.1758 35.2084 98.3692 35.1838 98.5398 35.1004C98.7211 34.9803 98.8636 34.8101 98.9498 34.6104H98.9898ZM97.3198 33.3804L99.1598 33.7104C99.1907 33.4854 99.1559 33.2562 99.0598 33.0504C98.9954 32.9328 98.9054 32.8312 98.7963 32.7533C98.6872 32.6754 98.5619 32.6231 98.4297 32.6004C98.3112 32.5767 98.1891 32.5769 98.0707 32.601C97.9522 32.625 97.8398 32.6724 97.7398 32.7404C97.6238 32.8103 97.5232 32.9031 97.4441 33.0132C97.365 33.1232 97.3091 33.2481 97.2798 33.3804H97.3198ZM99.8398 37.1604L100.67 32.6104L101.17 32.7104L101.1 33.1304C101.234 32.9985 101.394 32.8963 101.57 32.8304C101.757 32.7846 101.953 32.7846 102.14 32.8304C102.404 32.8724 102.648 32.9946 102.84 33.1804C103.034 33.3698 103.167 33.6139 103.22 33.8804C103.344 34.4921 103.222 35.1282 102.88 35.6504C102.726 35.8867 102.502 36.0686 102.24 36.1704C101.996 36.2687 101.73 36.2998 101.47 36.2604C101.3 36.2255 101.139 36.1538 101 36.0504C100.87 35.952 100.764 35.8255 100.69 35.6804L100.4 37.2804L99.8398 37.1604ZM100.84 34.3704C100.747 34.7026 100.775 35.0572 100.92 35.3704C100.976 35.4794 101.057 35.574 101.156 35.6469C101.255 35.7197 101.369 35.7688 101.49 35.7904C101.612 35.8148 101.739 35.8094 101.859 35.7746C101.979 35.7397 102.089 35.6766 102.18 35.5904C102.434 35.347 102.594 35.0208 102.63 34.6704C102.712 34.3363 102.68 33.9845 102.54 33.6704C102.487 33.5575 102.407 33.459 102.308 33.3836C102.209 33.3082 102.093 33.258 101.97 33.2373C101.847 33.2167 101.721 33.2262 101.602 33.265C101.484 33.3039 101.377 33.3709 101.29 33.4604C101.039 33.7041 100.878 34.0243 100.83 34.3704H100.84ZM103.65 34.8604C103.675 34.6072 103.757 34.3629 103.888 34.145C104.02 33.9271 104.198 33.7411 104.41 33.6004C104.742 33.4067 105.135 33.3459 105.51 33.4304C105.711 33.4634 105.904 33.5372 106.076 33.6472C106.248 33.7573 106.395 33.9013 106.51 34.0704C106.628 34.2647 106.707 34.4805 106.741 34.7054C106.775 34.9302 106.765 35.1597 106.71 35.3804C106.673 35.7396 106.546 36.0836 106.34 36.3804C106.172 36.5972 105.941 36.7577 105.68 36.8404C105.413 36.931 105.127 36.9516 104.85 36.9004C104.648 36.8679 104.455 36.7944 104.283 36.6843C104.111 36.5742 103.964 36.4299 103.85 36.2604C103.723 36.0529 103.639 35.8221 103.603 35.5816C103.567 35.3412 103.579 35.0959 103.64 34.8604H103.65ZM104.23 34.9704C104.135 35.3044 104.171 35.6618 104.33 35.9704C104.396 36.0873 104.488 36.1877 104.599 36.2639C104.71 36.3401 104.837 36.3902 104.97 36.4104C105.099 36.4371 105.234 36.4339 105.362 36.401C105.49 36.368 105.609 36.3063 105.71 36.2204C105.94 35.9722 106.095 35.6638 106.157 35.331C106.219 34.9983 106.185 34.6548 106.06 34.3404C105.993 34.2235 105.901 34.1231 105.79 34.0469C105.679 33.9707 105.553 33.9206 105.42 33.9004C105.289 33.875 105.155 33.8779 105.025 33.909C104.896 33.94 104.775 33.9985 104.67 34.0804C104.417 34.3129 104.257 34.6291 104.22 34.9704H104.23ZM107.71 33.9004L108.99 34.1304C109.229 34.1648 109.462 34.2356 109.68 34.3404C109.829 34.4234 109.951 34.5486 110.03 34.7004C110.114 34.8672 110.139 35.0577 110.1 35.2404C110.072 35.3811 110.014 35.5141 109.93 35.6304C109.834 35.7369 109.714 35.8191 109.58 35.8704C109.728 35.9483 109.845 36.0756 109.91 36.2304C109.99 36.3949 110.014 36.5808 109.98 36.7604C109.956 36.8934 109.902 37.0193 109.822 37.1285C109.743 37.2376 109.639 37.3272 109.52 37.3904C109.226 37.5148 108.899 37.5394 108.59 37.4604L107.11 37.1904L107.71 33.9004ZM107.71 36.8304L108.44 36.9604C108.66 37.0167 108.89 37.0167 109.11 36.9604C109.179 36.9314 109.239 36.8847 109.285 36.825C109.331 36.7654 109.36 36.6948 109.37 36.6204C109.404 36.5199 109.404 36.4109 109.37 36.3104C109.347 36.2589 109.315 36.2128 109.273 36.1749C109.232 36.137 109.183 36.1082 109.13 36.0904C108.963 36.0239 108.788 35.9802 108.61 35.9604L107.94 35.8304L107.71 36.8304ZM107.97 35.3804L108.57 35.4904C108.732 35.5141 108.897 35.5141 109.06 35.4904C109.158 35.4875 109.253 35.4524 109.33 35.3904C109.409 35.3282 109.462 35.2393 109.48 35.1404C109.504 35.0704 109.506 34.9948 109.486 34.9235C109.466 34.8522 109.426 34.7884 109.37 34.7404C109.181 34.623 108.97 34.5479 108.75 34.5204L108.14 34.4104L107.97 35.3804ZM112.62 38.2004C112.594 38.0582 112.594 37.9125 112.62 37.7704C112.418 37.8973 112.194 37.9855 111.96 38.0304C111.748 38.0704 111.531 38.0704 111.32 38.0304C111.168 38.0154 111.022 37.9706 110.888 37.8985C110.754 37.8264 110.636 37.7285 110.54 37.6104C110.461 37.5099 110.405 37.3935 110.375 37.2691C110.346 37.1448 110.344 37.0155 110.37 36.8904C110.398 36.734 110.463 36.5866 110.56 36.4604C110.656 36.349 110.775 36.2603 110.91 36.2004C111.045 36.1382 111.191 36.1009 111.34 36.0904C111.51 36.0802 111.68 36.0802 111.85 36.0904C112.182 36.1255 112.517 36.1255 112.85 36.0904C112.854 36.0438 112.854 35.9969 112.85 35.9504C112.875 35.8653 112.882 35.7758 112.87 35.6878C112.858 35.5998 112.827 35.5154 112.78 35.4404C112.622 35.2706 112.41 35.161 112.18 35.1304C111.984 35.069 111.775 35.069 111.58 35.1304C111.409 35.2244 111.277 35.3771 111.21 35.5604L110.68 35.3904C110.754 35.1922 110.874 35.0141 111.03 34.8704C111.188 34.7414 111.378 34.6584 111.58 34.6304C111.835 34.5861 112.095 34.5861 112.35 34.6304C112.582 34.662 112.805 34.7366 113.01 34.8504C113.147 34.9287 113.263 35.0384 113.35 35.1704C113.419 35.2962 113.457 35.4369 113.46 35.5804C113.452 35.7554 113.428 35.9294 113.39 36.1004L113.26 36.8404C113.187 37.1699 113.137 37.504 113.11 37.8404C113.109 37.9834 113.132 38.1255 113.18 38.2604L112.6 38.1604L112.62 38.2004ZM112.76 36.5204C112.444 36.5556 112.125 36.5556 111.81 36.5204C111.644 36.4957 111.476 36.4957 111.31 36.5204C111.213 36.5379 111.125 36.5871 111.06 36.6604C110.992 36.7285 110.946 36.8157 110.93 36.9104C110.916 36.9803 110.917 37.0525 110.935 37.1217C110.952 37.1909 110.984 37.2553 111.03 37.3104C111.151 37.4462 111.319 37.5318 111.5 37.5504C111.696 37.6055 111.904 37.6055 112.1 37.5504C112.275 37.4949 112.426 37.3822 112.53 37.2304C112.637 37.0681 112.705 36.8833 112.73 36.6904L112.76 36.5204Z" fill="#5C5C5C"/>
<path id="Vector_2" d="M27.7109 62.3202L28.1309 61.8702L31.2209 62.7102L30.0609 59.8202L30.481 59.3702L31.9109 63.0902C32.0516 63.4085 32.1459 63.7452 32.1909 64.0902C32.1878 64.1993 32.1633 64.3066 32.1187 64.4061C32.074 64.5056 32.0102 64.5954 31.9309 64.6702C31.7885 64.8066 31.6268 64.9212 31.4509 65.0102L31.0709 64.6502C31.249 64.6054 31.4094 64.5078 31.5309 64.3702C31.5868 64.3195 31.6316 64.2578 31.6625 64.189C31.6935 64.1201 31.71 64.0457 31.7109 63.9702C31.688 63.7225 31.6094 63.4832 31.481 63.2702L27.7109 62.3202ZM31.611 60.0302L33.4109 58.1202L35.8409 60.4002L35.4609 60.8102L33.361 58.8102L32.361 59.9002L33.5809 61.0402C33.7702 61.2109 33.9474 61.3947 34.111 61.5902C34.1825 61.7033 34.2141 61.8371 34.2009 61.9702C34.1786 62.1423 34.0974 62.3014 33.9709 62.4202C33.868 62.5308 33.7577 62.6344 33.6409 62.7302L33.291 62.4102L33.4609 62.2302C33.5269 62.1731 33.5783 62.1011 33.611 62.0202C33.6304 61.9721 33.6304 61.9183 33.611 61.8702C33.501 61.7375 33.3806 61.6138 33.2509 61.5002L31.611 60.0302ZM37.981 54.2602L38.3709 54.6302L39.551 53.3802C39.8732 53.6863 40.0843 54.0909 40.1509 54.5302C40.1682 54.7906 40.1124 55.0506 39.9898 55.2809C39.8672 55.5112 39.6827 55.7027 39.457 55.8337C39.2314 55.9648 38.9736 56.0301 38.7128 56.0224C38.452 56.0147 38.1985 55.9343 37.981 55.7902L37.6909 56.3202C38.0666 56.5757 38.5242 56.6814 38.9738 56.6167C39.4235 56.5519 39.8326 56.3213 40.1209 55.9702C40.3486 55.7612 40.5221 55.5 40.6266 55.2091C40.7312 54.9183 40.7635 54.6064 40.7209 54.3002C40.6012 53.811 40.3636 53.3584 40.029 52.9819C39.6944 52.6055 39.2728 52.3165 38.801 52.1402C38.4398 52.02 38.0529 51.9993 37.6809 52.0802C37.2937 52.1891 36.9463 52.408 36.6809 52.7102C36.3755 53.0126 36.1757 53.4054 36.111 53.8302C36.072 54.2342 36.1706 54.6394 36.3909 54.9802L36.9109 54.6502C36.7384 54.4134 36.6593 54.1212 36.6888 53.8296C36.7184 53.5381 36.8544 53.2677 37.0709 53.0702C37.1956 52.9249 37.3486 52.8066 37.5205 52.7223C37.6924 52.6381 37.8797 52.5897 38.0709 52.5802C38.4738 52.5933 38.858 52.7533 39.1509 53.0302L37.981 54.2602ZM36.5309 59.6702L36.0609 59.2302L36.5009 58.7602L36.9709 59.2002L36.5309 59.6702ZM42.7109 51.3702L43.1409 51.0202C43.3777 51.298 43.4994 51.6557 43.481 52.0202C43.4694 52.3587 43.33 52.6803 43.0909 52.9202C42.9542 53.075 42.7866 53.1995 42.5989 53.2856C42.4112 53.3717 42.2074 53.4176 42.0009 53.4202C41.5367 53.3838 41.1023 53.1773 40.7809 52.8402C40.5419 52.6221 40.3512 52.3564 40.2209 52.0602C40.1041 51.8066 40.0793 51.5202 40.1509 51.2502C40.2136 50.9794 40.3484 50.7306 40.541 50.5302C40.7478 50.2857 41.0349 50.1226 41.351 50.0702C41.6604 50.0227 41.9763 50.0981 42.231 50.2802L41.9109 50.7402C41.7466 50.6284 41.5492 50.5755 41.351 50.5902C41.1767 50.6127 41.0166 50.698 40.9009 50.8302C40.8067 50.923 40.7352 51.0362 40.6918 51.161C40.6485 51.2859 40.6345 51.4191 40.6509 51.5502C40.7142 51.8878 40.8992 52.1903 41.171 52.4002C41.4037 52.6595 41.7174 52.8323 42.0609 52.8902C42.1881 52.8982 42.3154 52.8771 42.4332 52.8286C42.551 52.7801 42.6563 52.7054 42.741 52.6102C42.8839 52.4622 42.966 52.2659 42.9709 52.0602C42.9753 51.8055 42.8823 51.5587 42.7109 51.3702ZM41.8809 49.1602L43.7109 47.2402L46.1409 49.5302L45.7109 49.9702L43.611 47.9702L42.611 49.0702L44.7109 51.0702L44.3209 51.4802L41.8809 49.1602ZM47.491 46.5002L47.9409 46.1302C48.1255 46.3994 48.2072 46.7259 48.171 47.0502C48.1051 47.4281 47.9147 47.7731 47.6302 48.0304C47.3458 48.2877 46.9835 48.4425 46.601 48.4702C46.3714 48.4636 46.1454 48.4116 45.936 48.3172C45.7266 48.2228 45.5379 48.0879 45.3809 47.9202C45.0149 47.6156 44.7789 47.1829 44.7209 46.7102C44.7089 46.4998 44.7419 46.2893 44.8178 46.0927C44.8937 45.8961 45.0107 45.718 45.1609 45.5702C45.2941 45.4145 45.4599 45.2899 45.6465 45.2052C45.8331 45.1206 46.0361 45.0779 46.241 45.0802C46.7088 45.1058 47.149 45.3098 47.4709 45.6502L47.5709 45.7602L45.8709 47.5702C45.9776 47.689 46.1068 47.7855 46.251 47.8542C46.3951 47.9229 46.5515 47.9623 46.7109 47.9702C46.9747 47.9665 47.2263 47.8586 47.4109 47.6702C47.5416 47.533 47.6256 47.358 47.6509 47.1702C47.6607 46.9338 47.5979 46.7 47.4709 46.5002H47.491ZM45.551 47.2302L46.8309 45.8702C46.6556 45.7251 46.4453 45.6286 46.2209 45.5902C46.0869 45.5818 45.9527 45.6034 45.8281 45.6536C45.7035 45.7038 45.5917 45.7812 45.5009 45.8802C45.4161 45.9676 45.3494 46.0709 45.3047 46.1842C45.2601 46.2975 45.2385 46.4185 45.241 46.5402C45.2447 46.7991 45.3486 47.0464 45.5309 47.2302H45.551ZM50.0909 47.1702L46.7109 43.9702L47.0609 43.5902L47.3809 43.8902C47.3409 43.7057 47.3409 43.5148 47.3809 43.3302C47.4326 43.1412 47.5326 42.9689 47.671 42.8302C47.8508 42.6318 48.0888 42.4953 48.351 42.4402C48.6144 42.3808 48.8895 42.4017 49.1409 42.5002C49.4213 42.6069 49.6766 42.7703 49.8909 42.9802C50.125 43.1966 50.3122 43.4586 50.4409 43.7502C50.5491 44.0092 50.5804 44.2939 50.5309 44.5702C50.4847 44.8296 50.3629 45.0697 50.1809 45.2602C50.0644 45.3894 49.9162 45.4859 49.7509 45.5402C49.6011 45.5969 49.4408 45.6208 49.2809 45.6102L50.4609 46.7202L50.0909 47.1702ZM48.3109 44.7902C48.5345 45.0453 48.8442 45.209 49.1809 45.2502C49.3028 45.2626 49.4259 45.2464 49.5404 45.203C49.6549 45.1596 49.7578 45.0902 49.8409 45.0002C49.9256 44.9084 49.9884 44.7987 50.0248 44.6792C50.0611 44.5598 50.0701 44.4336 50.051 44.3102C49.9778 43.9662 49.7868 43.6585 49.5109 43.4402C49.2814 43.1928 48.9747 43.0306 48.6409 42.9802C48.5183 42.965 48.3938 42.9788 48.2774 43.0205C48.161 43.0622 48.0561 43.1306 47.9709 43.2202C47.8896 43.3157 47.8304 43.4279 47.7975 43.5489C47.7647 43.67 47.759 43.7968 47.7809 43.9202C47.8477 44.2595 48.0275 44.5662 48.291 44.7902H48.3109ZM50.2509 42.7002C50.0547 42.5393 49.8952 42.3382 49.7831 42.1105C49.671 41.8829 49.6089 41.6339 49.601 41.3802C49.6268 41.0039 49.7864 40.6492 50.051 40.3802C50.1871 40.2214 50.3557 40.0936 50.5455 40.0056C50.7353 39.9177 50.9418 39.8715 51.1509 39.8702C51.3778 39.8734 51.6017 39.9219 51.8095 40.0129C52.0173 40.1039 52.2048 40.2356 52.361 40.4002C52.6281 40.6278 52.8372 40.9158 52.9709 41.2402C53.0512 41.5009 53.0512 41.7796 52.9709 42.0402C52.9026 42.3139 52.7648 42.5654 52.5709 42.7702C52.4317 42.9287 52.2613 43.0568 52.0703 43.1463C51.8793 43.2357 51.6718 43.2848 51.4609 43.2902C50.9907 43.2574 50.5508 43.0464 50.231 42.7002H50.2509ZM50.6509 42.2702C50.8835 42.5244 51.1991 42.6875 51.541 42.7302C51.6758 42.7374 51.8105 42.7142 51.9351 42.6623C52.0598 42.6104 52.1711 42.531 52.2609 42.4302C52.3524 42.3335 52.4221 42.2183 52.4652 42.0924C52.5083 41.9664 52.5239 41.8327 52.5109 41.7002C52.4428 41.3567 52.255 41.0484 51.981 40.8302C51.7559 40.5803 51.4456 40.4234 51.111 40.3902C50.9771 40.3832 50.8432 40.4055 50.7189 40.4556C50.5945 40.5057 50.4826 40.5823 50.3909 40.6802C50.3 40.7773 50.2307 40.8926 50.1876 41.0184C50.1445 41.1442 50.1286 41.2778 50.1409 41.4102C50.1975 41.7458 50.3711 42.0505 50.6309 42.2702H50.6509ZM51.6509 38.7902L52.541 37.7902C52.6974 37.6073 52.8833 37.4519 53.0909 37.3302C53.2405 37.2488 53.4122 37.2173 53.5809 37.2402C53.7645 37.2557 53.9374 37.3333 54.0709 37.4602C54.176 37.5595 54.255 37.6832 54.301 37.8202C54.3365 37.958 54.3365 38.1025 54.301 38.2402C54.4481 38.1624 54.6165 38.1343 54.7809 38.1602C54.9607 38.1861 55.1281 38.2664 55.2609 38.3902C55.3578 38.4843 55.433 38.5983 55.4814 38.7244C55.5297 38.8504 55.5501 38.9855 55.541 39.1202C55.4815 39.4343 55.324 39.7214 55.0909 39.9402L54.0909 41.0302L51.6509 38.7902ZM53.0609 39.3402L53.4709 38.9002C53.5901 38.7837 53.6943 38.6526 53.7809 38.5102C53.8302 38.4257 53.8512 38.3276 53.8409 38.2302C53.8351 38.1694 53.8166 38.1104 53.7866 38.057C53.7567 38.0037 53.7159 37.9572 53.667 37.9205C53.6181 37.8838 53.562 37.8577 53.5024 37.8439C53.4429 37.8301 53.381 37.8288 53.3209 37.8402C53.1207 37.9344 52.9433 38.0709 52.801 38.2402L52.3709 38.6902L53.0609 39.3402ZM54.1309 40.3402L54.6409 39.8002C54.8075 39.6461 54.9345 39.454 55.0109 39.2402C55.024 39.1662 55.017 39.0901 54.9906 39.0197C54.9642 38.9494 54.9195 38.8874 54.861 38.8402C54.7806 38.7671 54.679 38.7216 54.5709 38.7102C54.4615 38.7006 54.3521 38.7289 54.2609 38.7902C54.1195 38.8973 53.9889 39.0179 53.8709 39.1502L53.4009 39.6502L54.1309 40.3402ZM57.9109 36.9702C57.7748 36.9306 57.6487 36.8624 57.541 36.7702C57.5275 37.009 57.4803 37.2447 57.4009 37.4702C57.3188 37.6674 57.2001 37.8473 57.051 38.0002C56.8568 38.2413 56.5776 38.3987 56.2709 38.4402C56.1424 38.4502 56.0132 38.4321 55.8923 38.3872C55.7715 38.3423 55.6618 38.2717 55.5709 38.1802C55.4608 38.0765 55.377 37.948 55.3266 37.8054C55.2762 37.6627 55.2605 37.5101 55.2809 37.3602C55.302 37.2084 55.353 37.0622 55.4309 36.9302C55.511 36.7818 55.6047 36.6412 55.7109 36.5102C55.9228 36.2393 56.107 35.9478 56.2609 35.6402L56.1509 35.5302C56.0937 35.4644 56.0231 35.4116 55.9437 35.3753C55.8644 35.3391 55.7781 35.3203 55.6909 35.3202C55.4616 35.3563 55.2545 35.4778 55.111 35.6602C54.9564 35.7974 54.8481 35.979 54.801 36.1802C54.7936 36.3775 54.8535 36.5715 54.9709 36.7302L54.541 37.0802C54.4139 36.9088 54.3283 36.7103 54.291 36.5002C54.2633 36.298 54.2982 36.0921 54.3909 35.9102C54.4925 35.6746 54.6385 35.4607 54.8209 35.2802C54.9768 35.1022 55.163 34.9532 55.3709 34.8402C55.498 34.7547 55.6478 34.709 55.801 34.709C55.9542 34.709 56.1039 34.7547 56.231 34.8402C56.3736 34.9421 56.5074 35.0559 56.6309 35.1802L57.1809 35.6902C57.4169 35.9256 57.6674 36.1461 57.9309 36.3502C58.049 36.4311 58.1813 36.4888 58.3209 36.5202L57.9109 36.9502V36.9702ZM56.5809 35.9702C56.4535 36.2614 56.2924 36.5366 56.101 36.7902C55.9993 36.9257 55.9153 37.0736 55.851 37.2302C55.8217 37.3247 55.8217 37.4258 55.851 37.5202C55.8735 37.6121 55.9221 37.6954 55.991 37.7602C56.0419 37.81 56.1034 37.8476 56.171 37.8701C56.2385 37.8927 56.3103 37.8995 56.3809 37.8902C56.562 37.866 56.7268 37.7729 56.8409 37.6302C56.9805 37.4845 57.0803 37.3055 57.1309 37.1102C57.1911 36.9353 57.1911 36.7452 57.1309 36.5702C57.0478 36.3941 56.9286 36.2373 56.7809 36.1102L56.5809 35.9702Z" fill="#5C5C5C"/>
<g id="Group">
<path id="Vector_3" d="M78.8305 18.54C76.9971 18.54 75.2048 17.9963 73.6804 16.9777C72.1559 15.9591 70.9678 14.5114 70.2662 12.8175C69.5646 11.1236 69.381 9.25972 69.7387 7.46152C70.0964 5.66331 70.9792 4.01156 72.2757 2.71513C73.5721 1.41869 75.2239 0.535809 77.0221 0.178124C78.8203 -0.179561 80.6841 0.00401735 82.378 0.705642C84.0719 1.40727 85.5196 2.59542 86.5382 4.11987C87.5568 5.64431 88.1005 7.43657 88.1005 9.27C88.1005 11.7286 87.1239 14.0864 85.3854 15.8249C83.6469 17.5633 81.2891 18.54 78.8305 18.54ZM78.8305 0.540004C77.0956 0.540005 75.3995 1.05461 73.9571 2.01871C72.5147 2.98281 71.3906 4.35309 70.7271 5.95618C70.0636 7.55927 69.8906 9.32314 70.2298 11.0246C70.569 12.7261 71.4053 14.2888 72.6328 15.5149C73.8603 16.741 75.4239 17.5754 77.1258 17.9127C78.8276 18.25 80.5913 18.0749 82.1936 17.4096C83.796 16.7442 85.1649 15.6186 86.1274 14.1751C87.0899 12.7315 87.6025 11.035 87.6005 9.30001C87.5979 6.97579 86.6727 4.74767 85.0283 3.10514C83.3839 1.46261 81.1547 0.540002 78.8305 0.540004Z" fill="#5D5D5C"/>
<path id="Vector_4" d="M75.4492 13.57V4.97998H76.6093L81.1292 11.72V4.97998H82.2192V13.57H81.0493L76.5392 6.81998V13.57H75.4492Z" fill="#5D5D5C"/>
<path id="Vector_5" d="M78.8305 153.57C76.9967 153.57 75.204 153.026 73.6793 152.007C72.1547 150.988 70.9666 149.539 70.2652 147.845C69.5639 146.15 69.3809 144.286 69.7394 142.488C70.0979 140.689 70.9818 139.037 72.2792 137.741C73.5766 136.445 75.2293 135.563 77.0282 135.207C78.827 134.85 80.6913 135.035 82.385 135.738C84.0787 136.441 85.5257 137.631 86.5431 139.157C87.5605 140.683 88.1025 142.476 88.1006 144.31C88.0979 146.767 87.12 149.122 85.3819 150.858C83.6437 152.594 81.2874 153.57 78.8305 153.57ZM78.8305 135.57C77.096 135.57 75.4004 136.084 73.9582 137.048C72.5159 138.011 71.3919 139.381 70.7281 140.984C70.0643 142.586 69.8906 144.35 70.229 146.051C70.5674 147.752 71.4027 149.315 72.6292 150.541C73.8557 151.768 75.4184 152.603 77.1196 152.941C78.8208 153.28 80.5842 153.106 82.1867 152.442C83.7892 151.778 85.1589 150.654 86.1225 149.212C87.0862 147.77 87.6006 146.074 87.6006 144.34C87.6006 142.014 86.6766 139.783 85.0319 138.138C83.3872 136.494 81.1565 135.57 78.8305 135.57Z" fill="#5D5D5C"/>
<path id="Vector_6" d="M75.4094 145.84L76.4794 145.75C76.5163 146.126 76.6395 146.489 76.8394 146.81C77.0567 147.108 77.3552 147.337 77.6993 147.47C78.1166 147.647 78.5661 147.736 79.0193 147.73C79.4109 147.735 79.8001 147.67 80.1694 147.54C80.4614 147.437 80.718 147.253 80.9094 147.01C81.0654 146.795 81.1494 146.536 81.1494 146.27C81.1561 146.014 81.075 145.763 80.9194 145.56C80.7138 145.325 80.4472 145.152 80.1494 145.06C79.6471 144.893 79.1364 144.753 78.6193 144.64C78.0474 144.523 77.4906 144.342 76.9594 144.1C76.5858 143.922 76.2677 143.645 76.0394 143.3C75.8403 142.979 75.7363 142.608 75.7394 142.23C75.7373 141.798 75.8663 141.377 76.1094 141.02C76.3718 140.629 76.7491 140.328 77.1893 140.16C77.6879 139.959 78.2218 139.86 78.7593 139.87C79.3368 139.859 79.911 139.961 80.4493 140.17C80.9046 140.356 81.2945 140.672 81.5693 141.08C81.8304 141.483 81.9757 141.95 81.9894 142.43L80.8994 142.51C80.8878 142.276 80.8297 142.047 80.7284 141.835C80.6271 141.624 80.4846 141.435 80.3093 141.28C79.8697 140.978 79.3412 140.834 78.8093 140.87C78.2806 140.822 77.7514 140.956 77.3093 141.25C77.1637 141.353 77.0449 141.489 76.9631 141.648C76.8813 141.806 76.8389 141.982 76.8394 142.16C76.8369 142.303 76.865 142.445 76.9219 142.576C76.9789 142.707 77.0632 142.824 77.1694 142.92C77.6926 143.236 78.2741 143.444 78.8793 143.53C79.5311 143.656 80.1703 143.84 80.7894 144.08C81.2288 144.264 81.6093 144.565 81.8893 144.95C82.1304 145.314 82.2559 145.743 82.2493 146.18C82.2469 146.639 82.1115 147.087 81.8594 147.47C81.5823 147.887 81.1895 148.213 80.7294 148.41C80.2082 148.645 79.6411 148.761 79.0693 148.75C78.3863 148.777 77.705 148.662 77.0693 148.41C76.5688 148.202 76.1384 147.855 75.8293 147.41C75.5335 146.946 75.371 146.41 75.3594 145.86" fill="#5D5D5C"/>
<path id="Vector_7" d="M132.709 96.9101C130.876 96.9101 129.083 96.3662 127.558 95.3471C126.034 94.3281 124.845 92.8797 124.144 91.1853C123.443 89.4908 123.26 87.6264 123.618 85.828C123.977 84.0295 124.861 82.3777 126.158 81.0817C127.456 79.7857 129.108 78.9036 130.907 78.547C132.706 78.1905 134.57 78.3755 136.264 79.0786C137.958 79.7818 139.405 80.9715 140.422 82.4973C141.439 84.023 141.981 85.8163 141.979 87.6501C141.977 90.1069 140.999 92.4622 139.261 94.1985C137.523 95.9348 135.166 96.9101 132.709 96.9101ZM132.709 78.9101C130.975 78.9101 129.279 79.4245 127.837 80.3881C126.395 81.3518 125.271 82.7215 124.607 84.324C123.943 85.9265 123.77 87.6898 124.108 89.3911C124.446 91.0923 125.282 92.6549 126.508 93.8814C127.735 95.108 129.297 95.9432 130.999 96.2816C132.7 96.62 134.463 96.4463 136.066 95.7825C137.668 95.1188 139.038 93.9947 140.001 92.5525C140.965 91.1103 141.479 89.4147 141.479 87.6801C141.479 85.3542 140.555 83.1235 138.911 81.4788C137.266 79.8341 135.035 78.9101 132.709 78.9101Z" fill="#5D5D5C"/>
<path id="Vector_8" d="M129.51 91.9401V83.3501H135.72V84.3601H130.64V87.0001H135.39V88.0001H130.64V90.9301H135.92V91.9401H129.51Z" fill="#5D5D5C"/>
<path id="Vector_9" d="M9.26999 96.9101C7.43613 96.9101 5.64346 96.3662 4.1188 95.3471C2.59414 94.3281 1.40601 92.8797 0.704677 91.1853C0.00334787 89.4908 -0.179637 87.6264 0.17886 85.828C0.537356 84.0295 1.42122 82.3777 2.71865 81.0817C4.01609 79.7857 5.66875 78.9036 7.46762 78.547C9.26648 78.1905 11.1307 78.3755 12.8244 79.0786C14.5181 79.7818 15.9652 80.9715 16.9826 82.4973C18 84.023 18.542 85.8163 18.54 87.6501C18.5347 90.1061 17.556 92.4599 15.8184 94.1956C14.0808 95.9313 11.726 96.9075 9.26999 96.9101ZM9.26999 78.9101C7.53544 78.9101 5.83983 79.4245 4.39761 80.3881C2.95539 81.3518 1.83135 82.7215 1.16757 84.324C0.503787 85.9265 0.330091 87.6898 0.668484 89.3911C1.00688 91.0923 1.84218 92.6549 3.06869 93.8814C4.2952 95.108 5.85783 95.9432 7.55905 96.2816C9.26026 96.62 11.0236 96.4463 12.6261 95.7825C14.2286 95.1188 15.5983 93.9947 16.562 92.5525C17.5256 91.1103 18.04 89.4147 18.04 87.6801C18.04 85.3542 17.116 83.1235 15.4713 81.4788C13.8266 79.8341 11.5959 78.9101 9.26999 78.9101Z" fill="#5D5D5C"/>
<path id="Vector_10" d="M6.03094 91.9701L3.71094 83.3501H4.88092L6.19092 88.9801C6.33092 89.5701 6.45096 90.1601 6.55096 90.7401C6.77096 89.8201 6.90092 89.2901 6.94092 89.1501L8.57092 83.3501H9.94092L11.171 87.7001C11.4598 88.6843 11.6836 89.6865 11.8409 90.7001C11.9509 90.1601 12.0909 89.5301 12.2709 88.8301L13.6209 83.3101H14.7609L12.4409 91.9701H11.351L9.54095 85.4201C9.38095 84.8801 9.29094 84.5401 9.27094 84.4201C9.18093 84.8101 9.09093 85.1501 9.01093 85.4201L7.19092 91.9701H6.03094Z" fill="#5D5D5C"/>
</g>
<g id="Group_2">
<path id="Vector_11" d="M43.8008 64.1504L46.1008 66.4304L55.8707 69.3004" stroke="#1D1D1B" stroke-width="0.5" stroke-linecap="round" stroke-linejoin="round"/>
<path id="Vector 1" d="M68.7109 73.4702L71.2109 60.4702L62.7109 58.4702V57.4702L52.7109 54.9702L43.7109 63.9702L46.2109 66.4702L68.7109 73.4702Z" fill="#1D1D1B"/>
<path id="Vector_12" d="M68.9414 60.0302L71.2214 60.5002L71.9114 57.1602L85.2514 59.9302" stroke="#1D1D1B" stroke-width="0.5" stroke-linecap="round" stroke-linejoin="round"/>
<path id="Vector_13" d="M90.1606 95.2803L102.161 98.1603L90.0605 95.6503L90.1606 95.2803ZM102.261 97.7903L90.1606 95.2803L102.161 98.1603L102.261 97.7903Z" fill="#1D1D1B"/>
<path id="Vector_14" d="M85.2507 59.9302L74.8907 109.88L70.4407 108.96L67.6708 122.36L71.4908 123.16L71.2908 124.14L96.2308 129.32L97.8408 121.6L96.1708 121.25L98.1407 111.74L99.3107 111.99L102.261 97.7802L101.091 97.5402L105.121 78.0902L106.351 78.3502L109.391 64.0302L108.091 63.7702L109.241 58.2102L110.851 58.5402L112.461 50.7602L66.4608 41.2202L43.8008 64.1502" stroke="#1D1D1B" stroke-width="0.5" stroke-linecap="round" stroke-linejoin="round"/>
<path id="Vector_15" d="M74.8906 109.88L86.6806 112.33L87.3906 108.93L75.5906 106.49L74.8906 109.88Z" stroke="#1D1D1B" stroke-width="0.5" stroke-linecap="round" stroke-linejoin="round"/>
<path id="Vector_16" d="M71.4899 123.16L67.6699 122.36L69.9699 111.25L73.7999 112.04L71.4899 123.16Z" stroke="#1D1D1B" stroke-width="0.5" stroke-linecap="round" stroke-linejoin="round"/>
<path id="Vector_17" d="M78.3516 93.2104L90.0815 95.6404L90.8215 92.0604L79.0916 89.6304L78.3516 93.2104Z" stroke="#1D1D1B" stroke-width="0.5" stroke-linecap="round" stroke-linejoin="round"/>
<path id="Vector_18" d="M81.8203 76.4803L93.6104 78.9203L94.3703 75.2803L82.5703 72.8403L81.8203 76.4803Z" stroke="#1D1D1B" stroke-width="0.5" stroke-linecap="round" stroke-linejoin="round"/>
<path id="Vector_19" d="M83.7715 59.6204L97.0415 62.3804L97.8615 58.4304L84.5915 55.6704L83.7715 59.6204Z" stroke="#1D1D1B" stroke-width="0.5" stroke-linecap="round" stroke-linejoin="round"/>
<path id="Vector_20" d="M68.9406 60.0304L62.3906 58.6704L63.2006 54.7804L68.0806 55.7904L68.6306 53.1304L72.5806 53.9504L71.9106 57.1604" stroke="#1D1D1B" stroke-width="0.5" stroke-linecap="round" stroke-linejoin="round"/>
<path id="Vector_21" d="M62.6917 57.2504L52.6816 55.1704" stroke="#1D1D1B" stroke-width="0.5" stroke-linecap="round" stroke-linejoin="round"/>
<path id="Vector_22" d="M97.8613 58.4302L108.731 60.6802" stroke="#1D1D1B" stroke-width="0.5" stroke-linecap="round" stroke-linejoin="round"/>
<path id="Vector_23" d="M83.9316 66.29L107.832 71.25" stroke="#1D1D1B" stroke-width="0.5" stroke-linecap="round" stroke-linejoin="round"/>
<path id="Vector_24" d="M105.12 78.0903L94.25 75.8403" stroke="#1D1D1B" stroke-width="0.5" stroke-linecap="round" stroke-linejoin="round"/>
<path id="Vector_25" d="M80.3711 83.1304L103.101 87.8504" stroke="#1D1D1B" stroke-width="0.5" stroke-linecap="round" stroke-linejoin="round"/>
<path id="Vector_26" d="M101.09 97.54L90.1602 95.27" stroke="#1D1D1B" stroke-width="0.5" stroke-linecap="round" stroke-linejoin="round"/>
<path id="Vector_27" d="M76.9316 100.07L100.762 105.01" stroke="#1D1D1B" stroke-width="0.5" stroke-linecap="round" stroke-linejoin="round"/>
<path id="Vector_28" d="M98.1415 111.74L87.2715 109.49" stroke="#1D1D1B" stroke-width="0.5" stroke-linecap="round" stroke-linejoin="round"/>
<path id="Vector_29" d="M79.98 111.13L79.5 113.42L86.05 114.77L83.59 126.63" stroke="#1D1D1B" stroke-width="0.5" stroke-linecap="round" stroke-linejoin="round"/>
<path id="Vector_30" d="M80.7899 44.1904L77.8398 58.3904" stroke="#1D1D1B" stroke-width="0.5" stroke-linecap="round" stroke-linejoin="round"/>
<path id="Vector_31" d="M55.8711 69.3L68.5711 73.28L71.2211 60.5" stroke="#1D1D1B" stroke-width="0.5" stroke-linecap="round" stroke-linejoin="round"/>
<path id="Vector_32" d="M62.6309 102.45L63.1309 99.6803L67.1309 100.41L67.2109 100.01L68.8009 100.3L68.7009 100.83L67.7009 100.64L67.1509 103.64L68.2109 103.83L68.1109 104.37L66.5209 104.08L66.5809 103.72C65.616 103.068 64.501 102.672 63.3409 102.57L62.6309 102.45ZM63.5609 100.38L63.2709 101.96H63.5009C63.8909 102.03 64.4109 102.16 65.0709 102.35C65.6299 102.499 66.1604 102.738 66.6409 103.06L67.0209 100.96L63.5609 100.38ZM64.5609 98.8603L64.8009 97.5803C64.828 97.3406 64.8956 97.1073 65.0009 96.8903C65.0879 96.7404 65.2164 96.6189 65.3708 96.5403C65.534 96.4561 65.7214 96.4313 65.9009 96.4703C66.0429 96.4938 66.177 96.5522 66.2909 96.6403C66.4038 96.7306 66.4873 96.8524 66.5309 96.9903C66.6088 96.8417 66.7361 96.725 66.8909 96.6603C67.0556 96.5812 67.2413 96.5567 67.4209 96.5903C67.5539 96.6141 67.6798 96.6679 67.7889 96.7476C67.8981 96.8273 67.9877 96.9308 68.0509 97.0503C68.1753 97.3443 68.1998 97.671 68.1208 97.9803L67.8509 99.4603L64.5609 98.8603ZM66.0509 98.5603L66.1609 97.9603C66.179 97.7974 66.179 97.6331 66.1609 97.4703C66.1497 97.3719 66.1116 97.2785 66.0509 97.2003C65.9888 97.1213 65.8998 97.068 65.8009 97.0503C65.7307 97.0279 65.6555 97.0263 65.5845 97.0459C65.5135 97.0654 65.4497 97.1052 65.4009 97.1603C65.2832 97.3476 65.2113 97.56 65.1909 97.7803L65.0809 98.3903L66.0509 98.5603ZM66.7709 96.0803C66.5183 96.0527 66.2747 95.9704 66.0571 95.8391C65.8395 95.7079 65.6531 95.5308 65.5109 95.3203C65.3201 94.9873 65.2562 94.5967 65.3309 94.2203C65.3662 94.0184 65.442 93.8257 65.5537 93.6539C65.6654 93.482 65.8107 93.3345 65.9809 93.2203C66.1734 93.1023 66.3876 93.0238 66.6108 92.9895C66.834 92.9551 67.0618 92.9656 67.2809 93.0203C67.6401 93.0573 67.9841 93.1845 68.2809 93.3903C68.4977 93.5584 68.6582 93.7886 68.7409 94.0503C68.8315 94.3173 68.8521 94.603 68.8009 94.8803C68.7661 95.0824 68.6905 95.2752 68.5788 95.4472C68.467 95.6191 68.3214 95.7665 68.1509 95.8803C67.947 96.0024 67.721 96.0829 67.4859 96.1173C67.2508 96.1516 67.0111 96.139 66.7809 96.0803H66.7709ZM66.8708 95.5003C67.2054 95.5872 67.5601 95.5518 67.8708 95.4003C67.9864 95.3321 68.0857 95.2395 68.1617 95.129C68.2378 95.0184 68.2886 94.8926 68.3109 94.7603C68.3376 94.6306 68.3344 94.4965 68.3015 94.3683C68.2685 94.2401 68.2067 94.121 68.1208 94.0203C67.8843 93.7603 67.5604 93.5966 67.2109 93.5603C66.875 93.4773 66.5207 93.5163 66.2109 93.6703C66.0964 93.7393 65.998 93.832 65.9222 93.9421C65.8465 94.0522 65.795 94.1772 65.7714 94.3087C65.7477 94.4403 65.7524 94.5753 65.785 94.7049C65.8177 94.8345 65.8777 94.9557 65.9609 95.0603C66.1995 95.3199 66.529 95.4775 66.8809 95.5003H66.8708ZM70.3509 92.8703L65.8009 92.0403L65.9009 91.5403L66.3209 91.6103C66.189 91.4764 66.0868 91.3162 66.0209 91.1403C65.9751 90.953 65.9751 90.7575 66.0209 90.5703C66.0582 90.3051 66.1811 90.0593 66.3708 89.8703C66.5603 89.6756 66.8044 89.5431 67.0709 89.4903C67.6826 89.3661 68.3187 89.4883 68.8409 89.8303C69.0772 89.9836 69.2592 90.2076 69.3609 90.4703C69.461 90.7139 69.4888 90.9813 69.4409 91.2403C69.4139 91.411 69.3452 91.5725 69.2409 91.7103C69.1425 91.8402 69.016 91.9462 68.8708 92.0203L70.4709 92.3103L70.3509 92.8703ZM67.5609 91.8703C67.8931 91.9634 68.2477 91.9351 68.5609 91.7903C68.6699 91.7339 68.7645 91.6531 68.8373 91.5543C68.9102 91.4554 68.9593 91.3411 68.9809 91.2203C69.0029 91.0976 68.9962 90.9716 68.9615 90.8519C68.9269 90.7322 68.865 90.6222 68.7809 90.5303C68.5375 90.2756 68.2113 90.116 67.8609 90.0803C67.5268 89.9985 67.175 90.0302 66.8609 90.1703C66.748 90.2231 66.6495 90.3026 66.5741 90.4018C66.4987 90.5011 66.4485 90.6172 66.4278 90.7402C66.4071 90.8631 66.4166 90.9892 66.4555 91.1077C66.4944 91.2262 66.5614 91.3334 66.6509 91.4203C66.8977 91.6654 67.224 91.8144 67.5709 91.8403L67.5609 91.8703ZM67.4909 98.8703L67.6309 98.1403C67.6817 97.9198 67.6817 97.6907 67.6309 97.4703C67.5979 97.4019 67.5488 97.3425 67.4879 97.2972C67.4269 97.252 67.3559 97.2221 67.2809 97.2103C67.1804 97.176 67.0714 97.176 66.9709 97.2103C66.8689 97.2583 66.7899 97.3445 66.7509 97.4503C66.6892 97.6185 66.6456 97.7928 66.6208 97.9703L66.5009 98.6403L67.4909 98.8703ZM69.3009 84.6903L69.4809 84.1603C69.8134 84.2641 70.0973 84.4842 70.2809 84.7803C70.4606 85.0809 70.5145 85.4402 70.4308 85.7803C70.404 85.9837 70.3327 86.1787 70.2221 86.3515C70.1115 86.5243 69.9643 86.6707 69.7909 86.7803C69.3873 87.0095 68.9108 87.074 68.4609 86.9603C68.1382 86.9134 67.8304 86.7937 67.5609 86.6103C67.3225 86.4642 67.145 86.2369 67.0609 85.9703C66.9711 85.7066 66.9505 85.4242 67.0009 85.1503C67.0416 84.8315 67.1939 84.5374 67.4308 84.3203C67.6698 84.1229 67.971 84.0166 68.2809 84.0203V84.5803C68.0831 84.5803 67.8904 84.6433 67.7309 84.7603C67.5971 84.8761 67.5085 85.0355 67.4809 85.2103C67.4536 85.3392 67.4555 85.4727 67.4867 85.6008C67.5178 85.7288 67.5774 85.8483 67.6609 85.9503C67.9001 86.1978 68.2186 86.3535 68.5609 86.3903C68.8936 86.4775 69.2462 86.4493 69.5609 86.3103C69.6714 86.2458 69.7665 86.1576 69.8391 86.0522C69.9117 85.9468 69.9601 85.8266 69.9809 85.7003C70.0251 85.4981 69.9893 85.2866 69.8809 85.1103C69.7578 84.8866 69.5539 84.7184 69.3109 84.6403L69.3009 84.6903ZM71.1109 81.6303C70.9688 81.6564 70.823 81.6564 70.6808 81.6303C70.8078 81.8322 70.8959 82.056 70.9409 82.2903C70.9809 82.5017 70.9809 82.7188 70.9409 82.9303C70.9065 83.2346 70.756 83.514 70.5209 83.7103C70.3555 83.836 70.1536 83.9041 69.9459 83.9041C69.7382 83.9041 69.5362 83.836 69.3708 83.7103C69.2538 83.6196 69.1639 83.4985 69.1109 83.3603C69.0487 83.2247 69.0114 83.0791 69.0009 82.9303C68.9906 82.7604 68.9906 82.5901 69.0009 82.4203C69.0359 82.0879 69.0359 81.7527 69.0009 81.4203H68.8609C68.7758 81.3947 68.6863 81.3878 68.5983 81.3998C68.5103 81.4119 68.4259 81.4428 68.3509 81.4903C68.1811 81.6483 68.0715 81.8604 68.0409 82.0903C67.9817 82.2893 67.9817 82.5013 68.0409 82.7003C68.1361 82.8682 68.2888 82.9961 68.4709 83.0603L68.3009 83.5903C68.1033 83.5192 67.9252 83.4028 67.7809 83.2503C67.652 83.0886 67.5691 82.8951 67.5409 82.6903C67.4964 82.4389 67.4964 82.1817 67.5409 81.9303C67.574 81.6957 67.6484 81.4688 67.7609 81.2603C67.8392 81.1233 67.9489 81.0068 68.0809 80.9203C68.2067 80.8511 68.3474 80.8133 68.4909 80.8103C68.666 80.8184 68.8399 80.8418 69.0109 80.8803L69.7509 81.0203C70.0811 81.0867 70.415 81.1335 70.7509 81.1603C70.8939 81.1615 71.036 81.1379 71.1709 81.0903L71.0709 81.6703L71.1109 81.6303ZM68.3309 89.1403L67.7709 89.0303L68.0809 87.3203L68.6409 87.4303L68.3309 89.1403ZM70.8609 80.4003C70.0783 79.7788 69.1273 79.4061 68.1309 79.3303L68.5509 77.0303L71.3809 77.5503L71.4409 77.1903L72.8309 77.4503L72.7509 77.9103L71.8209 77.7403L71.3409 80.3203L72.2809 80.4903L72.1909 80.9503L70.8009 80.7003L70.8609 80.4003ZM68.7109 78.8903C69.5273 79.0274 70.3029 79.3451 70.9809 79.8203L71.3109 78.0503L68.9409 77.6203L68.7109 78.8903ZM69.4609 81.4403C69.4996 81.7725 69.4996 82.1081 69.4609 82.4403C69.4362 82.606 69.4362 82.7745 69.4609 82.9403C69.4784 83.0397 69.5275 83.1309 69.6009 83.2003C69.6721 83.2618 69.7584 83.3032 69.8509 83.3203C69.9207 83.3367 69.9934 83.3362 70.063 83.3188C70.1326 83.3014 70.197 83.2676 70.2509 83.2203C70.3867 83.099 70.4723 82.9314 70.4909 82.7503C70.5418 82.5569 70.5418 82.3537 70.4909 82.1603C70.4353 81.9825 70.3229 81.8279 70.1709 81.7203C70.0096 81.6128 69.8239 81.5475 69.6309 81.5303L69.4609 81.4403Z" fill="#5C5C5C"/>
</g>
</g>
</svg>
